<?xml version="1.0" encoding="UTF-8" standalone="no"?>
<svg
   xmlns:dc="http://purl.org/dc/elements/1.1/"
   xmlns:cc="http://creativecommons.org/ns#"
   xmlns:rdf="http://www.w3.org/1999/02/22-rdf-syntax-ns#"
   xmlns:svg="http://www.w3.org/2000/svg"
   xmlns="http://www.w3.org/2000/svg"
   xmlns:xlink="http://www.w3.org/1999/xlink"

   

   width="4380" height="1200" id="svg2" ><defs id="defs1">
    <style type="text/css"><![CDATA[
   #messages path {stroke-wildeecap:round; stroke-wildeejoin:round; stroke:dimgray; stroke-width: 4px;  marker-start:url(#circle-sender); marker-mid:url(#to-square); marker-end:url(#to-square); } //
   #threads path {stroke:black; stroke-width: 1px; } // stroke-dasharray: 5px, 7px; }
   defs path { marker-mid:none; marker-end:none; }
    ]]></style>
     
    <symbol id="circle" >
      <circle cx="8" cy="8" r="5" stroke="navy" fill="black" stroke-width="2"  />
    </symbol>

    <symbol id="sq" >
      <rect x="0" y="0" width="16" height="16" stroke="navy" fill="white" stroke-width="2"  />
    </symbol>

    <marker id="to-square" viewBox="0 0 16 16" refX="8" refY="8" markerUnits="userSpaceOnUse" markerWidth="16" markerHeight="16" orient="0">
      <use x="0" y="0" xlink:href="#sq" />
    </marker>


    <marker id="Square"  viewBox="0 0 16 16" refX="8" refY="8" markerUnits="userSpaceOnUse" markerWidth="16" markerHeight="16" orient="0">
        <rect x="0" y="0" width="16" height="16" stroke="navy" fill="white" stroke-width="1"  />
    </marker>

    <symbol id="circle"  viewBox="0 0 16 16" refX="8" refY="8" markerUnits="userSpaceOnUse" markerWidth="16" markerHeight="16" orient="0">
      <circle cx="5" cy="5" r="3" stroke="navy" fill="black" stroke-width="2"  />
    </symbol>

    <marker id="circle-sender"  viewBox="0 0 16 16" refX="8" refY="8" markerUnits="userSpaceOnUse" markerWidth="16" markerHeight="16" orient="0">
        <use x="0" y="0" xlink:href="#circle" />
    </marker>

<!--
     <marker id="sender"  viewBox="0 0 10 10" refX="5" refY="5" 
      markerUnits="strokeWidth"
      markerWidth="5" markerHeight="5"
      orient="90deg">
      <circle cx="5" cy="5" r="3"
        stroke="navy" fill="black" stroke-width="2"  />
    </marker> -->

     <marker id="Triangle"  viewBox="0 0 10 10" refX="10" refY="5" 
      markerUnits="strokeWidth"
      markerWidth="5" markerHeight="5"
      orient="auto">
      <path d="M 0 0 L 10 5 L 0 10 z" />
    </marker>



    <marker id="sender-square"  viewBox="0 0 10 10" refX="5" refY="5" 
      markerUnits="strokeWidth"   
      markerWidth="5" markerHeight="5" 
      orient="90deg">
        <rect x="0" y="0" width="10" height="10"
     stroke="navy" fill="black" stroke-width="2"  />
    </marker>

</defs>

  <metadata
     id="metadata7">
    <rdf:RDF>
      <cc:Work
         rdf:about="">
        <dc:format>image/svg+xml</dc:format>
        <dc:type
           rdf:resource="http://purl.org/dc/dcmitype/StillImage" />
      </cc:Work>
    </rdf:RDF>
  </metadata>
<!-- (c)2008 S.De Gabrielle  --><g  id="threads" stroke-width="2px"  fill="none"  ><path stroke="green" d="M 3870,55 H 3870 V 100 V 55   H 3890 V 100 V 55   H 3910 V 100 V 55   H 3930 V 550 V 55   H 3950 V 550 V 55   H 3970 V 190 V 55   H 3990 V 505 V 55   H 4010 V 190 V 55   H 4030 V 190 V 55   H 4050 V 190 V 55   H 4070 V 190 V 55   H 4090 V 505 V 55   H 4110 V 190 V 55   H 4130 V 550 V 55   H 4150 V 550 V 55   H 4170 V 550 V 55   H 4190 V 190 V 55   H 4210 V 190 V 55   H 4230 V 505 V 55   H 4250 V 505 V 55   H 4270 V 550 V 55   H 4290 V 190 V 55   H 4310 V 190 V 55 " /><path stroke="green" d="M 3870,655 H 3870 V 610 V 655   H 3890 V 610 V 655   H 3910 V 610 V 655   H 3930 V 625 V 655   H 3950 V 625 V 655   H 3970 V 625 V 655   H 3990 V 625 V 655   H 4010 V 625 V 655   H 4030 V 625 V 655   H 4050 V 625 V 655   H 4070 V 625 V 655   H 4090 V 625 V 655   H 4110 V 625 V 655   H 4130 V 625 V 655   H 4150 V 625 V 655   H 4170 V 625 V 655   H 4190 V 625 V 655   H 4210 V 625 V 655   H 4230 V 625 V 655   H 4250 V 625 V 655   H 4270 V 625 V 655   H 4290 V 625 V 655   H 4310 V 625 V 655 " /><path stroke="orange" d="M 3790,58 H 3790 V 100 V 58   H 3810 V 100 V 58   H 3830 V 100 V 58   H 3850 V 100 V 58 " /><path stroke="orange" d="M 3790,703 H 3790 V 655 V 703   H 3810 V 655 V 703   H 3830 V 655 V 703   H 3850 V 655 V 703 " /><path stroke="orange" d="M 3730,91 H 3730 V 130 V 91   H 3750 V 130 V 91   H 3770 V 130 V 91 " /><path stroke="orange" d="M 3730,673 H 3730 V 625 V 673   H 3750 V 625 V 673   H 3770 V 625 V 673 " /><path stroke="orange" d="M 3490,349 H 3490 V 385 V 349   H 3510 V 385 V 349   H 3530 V 385 V 349   H 3550 V 385 V 349   H 3570 V 385 V 349   H 3590 V 385 V 349   H 3610 V 385 V 349   H 3630 V 385 V 349   H 3650 V 385 V 349   H 3670 V 385 V 349   H 3690 V 385 V 349   H 3710 V 385 V 349 " /><path stroke="orange" d="M 3490,664 H 3490 V 625 V 664   H 3510 V 625 V 664   H 3530 V 625 V 664   H 3550 V 625 V 664   H 3570 V 625 V 664   H 3590 V 625 V 664   H 3610 V 625 V 664   H 3630 V 625 V 664   H 3650 V 625 V 664   H 3670 V 625 V 664   H 3690 V 625 V 664   H 3710 V 625 V 664 " /><path stroke="orange" d="M 3350,61 H 3350 V 100 V 61   H 3370 V 100 V 61   H 3390 V 100 V 61   H 3410 V 100 V 61   H 3430 V 520 V 61   H 3450 V 520 V 61   H 3470 V 520 V 61 " /><path stroke="orange" d="M 3350,673 H 3350 V 625 V 673   H 3370 V 625 V 673   H 3390 V 625 V 673   H 3410 V 625 V 673   H 3430 V 625 V 673   H 3450 V 625 V 673   H 3470 V 625 V 673 " /><path stroke="black" d="M 2010,58 H 2010 V 100 V 58   H 2030 V 100 V 58   H 2050 V 100 V 58   H 2070 V 100 V 58   H 2090 V 100 V 58   H 2110 V 100 V 58   H 2130 V 100 V 58   H 2150 V 100 V 58   H 2210 V 100 V 58   H 2250 V 100 V 58   H 2330 V 100 V 58   H 2350 V 100 V 58   H 2370 V 100 V 58   H 2390 V 430 V 58   H 2410 V 100 V 58   H 2430 V 100 V 58   H 2450 V 430 V 58   H 2470 V 100 V 58   H 2490 V 100 V 58   H 2510 V 100 V 58   H 2530 V 430 V 58   H 2610 V 100 V 58   H 2630 V 100 V 58   H 2650 V 100 V 58   H 2670 V 100 V 58   H 2690 V 100 V 58   H 2710 V 100 V 58   H 2730 V 100 V 58   H 2750 V 100 V 58   H 2770 V 100 V 58   H 2790 V 100 V 58   H 2810 V 100 V 58   H 2830 V 100 V 58   H 2910 V 520 V 58   H 2930 V 625 V 58   H 2950 V 430 V 58   H 2970 V 520 V 58   H 2990 V 625 V 58   H 3010 V 625 V 58   H 3030 V 430 V 58   H 3050 V 520 V 58   H 3070 V 430 V 58   H 3090 V 625 V 58   H 3110 V 100 V 58   H 3130 V 100 V 58   H 3150 V 100 V 58   H 3170 V 100 V 58   H 3190 V 100 V 58   H 3210 V 100 V 58   H 3250 V 100 V 58   H 3290 V 100 V 58   H 3310 V 100 V 58 " /><path stroke="black" d="M 2010,703 H 2010 V 610 V 703   H 2030 V 610 V 703   H 2050 V 610 V 703   H 2070 V 610 V 703   H 2090 V 610 V 703   H 2110 V 610 V 703   H 2130 V 610 V 703   H 2150 V 610 V 703   H 2210 V 625 V 703   H 2250 V 625 V 703   H 2330 V 610 V 703   H 2350 V 610 V 703   H 2370 V 610 V 703   H 2390 V 625 V 703   H 2410 V 625 V 703   H 2430 V 610 V 703   H 2450 V 625 V 703   H 2470 V 625 V 703   H 2490 V 610 V 703   H 2510 V 610 V 703   H 2530 V 625 V 703   H 2610 V 625 V 703   H 2630 V 625 V 703   H 2650 V 625 V 703   H 2670 V 625 V 703   H 2690 V 625 V 703   H 2710 V 655 V 703   H 2730 V 655 V 703   H 2750 V 655 V 703   H 2770 V 655 V 703   H 2790 V 655 V 703   H 2810 V 655 V 703   H 2830 V 655 V 703   H 2910 V 625 V 703   H 2930 V 655 V 703   H 2950 V 625 V 703   H 2970 V 625 V 703   H 2990 V 655 V 703   H 3010 V 655 V 703   H 3030 V 625 V 703   H 3050 V 625 V 703   H 3070 V 625 V 703   H 3090 V 655 V 703   H 3110 V 655 V 703   H 3130 V 655 V 703   H 3150 V 655 V 703   H 3170 V 655 V 703   H 3190 V 655 V 703   H 3210 V 655 V 703   H 3250 V 655 V 703   H 3290 V 655 V 703   H 3310 V 655 V 703 " /><path stroke="red" d="M 2850,595 H 2850 V 640 V 595   H 2870 V 640 V 595   H 2890 V 640 V 595   H 3230 V 640 V 595   H 3270 V 640 V 595   H 3330 V 640 V 595 " /><path stroke="red" d="M 2850,700 H 2850 V 655 V 700   H 2870 V 655 V 700   H 2890 V 655 V 700   H 3230 V 655 V 700   H 3270 V 655 V 700   H 3330 V 655 V 700 " /><path stroke="violet" d="M 2550,607 H 2550 V 640 V 607   H 2570 V 640 V 607   H 2590 V 640 V 607 " /><path stroke="violet" d="M 2550,700 H 2550 V 670 V 700   H 2570 V 670 V 700   H 2590 V 670 V 700 " /><path stroke="purple" d="M 2270,55 H 2270 V 85 V 55   H 2290 V 85 V 55   H 2310 V 85 V 55 " /><path stroke="purple" d="M 2270,667 H 2270 V 625 V 667   H 2290 V 625 V 667   H 2310 V 625 V 667 " /><path stroke="black" d="M 2170,277 H 2170 V 325 V 277   H 2190 V 325 V 277   H 2230 V 325 V 277 " /><path stroke="black" d="M 2170,667 H 2170 V 625 V 667   H 2190 V 625 V 667   H 2230 V 625 V 667 " /><path stroke="black" d="M 1910,265 H 1910 V 295 V 265   H 1930 V 295 V 265   H 1950 V 295 V 265   H 1970 V 295 V 265   H 1990 V 295 V 265 " /><path stroke="black" d="M 1910,655 H 1910 V 625 V 655   H 1930 V 625 V 655   H 1950 V 625 V 655   H 1970 V 625 V 655   H 1990 V 625 V 655 " /><path stroke="orange" d="M 1850,127 H 1850 V 160 V 127   H 1870 V 160 V 127   H 1890 V 160 V 127 " /><path stroke="orange" d="M 1850,658 H 1850 V 625 V 658   H 1870 V 625 V 658   H 1890 V 625 V 658 " /><path stroke="gold" d="M 1190,70 H 1190 V 520 V 70   H 1210 V 520 V 70   H 1230 V 520 V 70   H 1250 V 520 V 70   H 1270 V 520 V 70   H 1350 V 100 V 70   H 1410 V 460 V 70   H 1430 V 580 V 70   H 1450 V 460 V 70   H 1470 V 580 V 70   H 1490 V 460 V 70   H 1510 V 460 V 70   H 1530 V 460 V 70   H 1550 V 100 V 70   H 1570 V 100 V 70   H 1590 V 100 V 70   H 1610 V 100 V 70   H 1630 V 100 V 70   H 1650 V 100 V 70   H 1670 V 100 V 70   H 1690 V 100 V 70   H 1710 V 520 V 70   H 1730 V 520 V 70   H 1750 V 520 V 70   H 1770 V 625 V 70   H 1790 V 625 V 70   H 1810 V 625 V 70   H 1830 V 625 V 70 " /><path stroke="gold" d="M 1190,697 H 1190 V 625 V 697   H 1210 V 625 V 697   H 1230 V 625 V 697   H 1250 V 625 V 697   H 1270 V 625 V 697   H 1350 V 625 V 697   H 1410 V 625 V 697   H 1430 V 625 V 697   H 1450 V 625 V 697   H 1470 V 625 V 697   H 1490 V 625 V 697   H 1510 V 625 V 697   H 1530 V 625 V 697   H 1550 V 625 V 697   H 1570 V 625 V 697   H 1590 V 625 V 697   H 1610 V 625 V 697   H 1630 V 625 V 697   H 1650 V 625 V 697   H 1670 V 625 V 697   H 1690 V 625 V 697   H 1710 V 625 V 697   H 1730 V 625 V 697   H 1750 V 625 V 697   H 1770 V 655 V 697   H 1790 V 655 V 697   H 1810 V 655 V 697   H 1830 V 655 V 697 " /><path stroke="gold" d="M 1290,67 H 1290 V 100 V 67   H 1310 V 100 V 67   H 1330 V 100 V 67   H 1370 V 100 V 67   H 1390 V 100 V 67 " /><path stroke="gold" d="M 1290,661 H 1290 V 625 V 661   H 1310 V 610 V 661   H 1330 V 610 V 661   H 1370 V 625 V 661   H 1390 V 610 V 661 " /><path stroke="violet" d="M 1110,70 H 1110 V 100 V 70   H 1130 V 100 V 70   H 1150 V 100 V 70   H 1170 V 100 V 70 " /><path stroke="violet" d="M 1110,691 H 1110 V 655 V 691   H 1130 V 655 V 691   H 1150 V 655 V 691   H 1170 V 655 V 691 " /><path stroke="orange" d="M 1050,421 H 1050 V 460 V 421   H 1070 V 580 V 421   H 1090 V 580 V 421 " /><path stroke="orange" d="M 1050,661 H 1050 V 625 V 661   H 1070 V 625 V 661   H 1090 V 625 V 661 " /><path stroke="gold" d="M 890,70 H 890 V 625 V 70   H 910 V 100 V 70   H 930 V 625 V 70   H 950 V 625 V 70   H 970 V 100 V 70   H 990 V 100 V 70   H 1010 V 100 V 70   H 1030 V 625 V 70 " /><path stroke="gold" d="M 890,688 H 890 V 655 V 688   H 910 V 610 V 688   H 930 V 655 V 688   H 950 V 655 V 688   H 970 V 610 V 688   H 990 V 655 V 688   H 1010 V 610 V 688   H 1030 V 655 V 688 " /><path stroke="purple" d="M 790,67 H 790 V 460 V 67   H 810 V 460 V 67   H 830 V 460 V 67   H 850 V 100 V 67   H 870 V 460 V 67 " /><path stroke="purple" d="M 790,670 H 790 V 625 V 670   H 810 V 625 V 670   H 830 V 625 V 670   H 850 V 625 V 670   H 870 V 625 V 670 " /><path stroke="green" d="M 490,214 H 490 V 250 V 214   H 510 V 250 V 214   H 530 V 250 V 214   H 550 V 580 V 214   H 590 V 250 V 214   H 610 V 250 V 214   H 630 V 250 V 214   H 650 V 580 V 214   H 670 V 580 V 214   H 710 V 250 V 214   H 750 V 250 V 214   H 770 V 580 V 214 " /><path stroke="green" d="M 490,673 H 490 V 625 V 673   H 510 V 625 V 673   H 530 V 625 V 673   H 550 V 625 V 673   H 590 V 625 V 673   H 610 V 625 V 673   H 630 V 625 V 673   H 650 V 625 V 673   H 670 V 625 V 673   H 710 V 625 V 673   H 750 V 625 V 673   H 770 V 625 V 673 " /><path stroke="black" d="M 570,412 H 570 V 460 V 412   H 690 V 460 V 412   H 730 V 460 V 412 " /><path stroke="black" d="M 570,661 H 570 V 625 V 661   H 690 V 625 V 661   H 730 V 625 V 661 " /><path stroke="black" d="M 270,97 H 270 V 460 V 97   H 290 V 460 V 97   H 310 V 370 V 97   H 330 V 145 V 97   H 350 V 145 V 97   H 370 V 460 V 97   H 390 V 145 V 97   H 410 V 625 V 97   H 430 V 625 V 97   H 450 V 625 V 97   H 470 V 625 V 97 " /><path stroke="black" d="M 270,685 H 270 V 625 V 685   H 290 V 625 V 685   H 310 V 655 V 685   H 330 V 625 V 685   H 350 V 625 V 685   H 370 V 625 V 685   H 390 V 625 V 685   H 410 V 655 V 685   H 430 V 655 V 685   H 450 V 655 V 685   H 470 V 655 V 685 " />
</g>
<text id="t1" stroke="none" x="20" xml:space="preserve" y="85"><tspan dx="10" dy="-5" id="ts1" font-family="sans-serif" font-size="70%">anita.dulux@enron.com</tspan></text><line stroke="black" stroke-width="0.5" x1="20" y1="85" x2="2500" y2="85" /><text id="t1" stroke="none" x="20" xml:space="preserve" y="100"><tspan dx="10" dy="-5" id="ts1" font-family="sans-serif" font-size="70%">jones@poppleton.edu</tspan></text><line stroke="black" stroke-width="0.5" x1="20" y1="100" x2="2500" y2="100" /><text id="t1" stroke="none" x="20" xml:space="preserve" y="115"><tspan dx="10" dy="-5" id="ts1" font-family="sans-serif" font-size="70%">jones@poppleton.poppleton.edu</tspan></text><line stroke="black" stroke-width="0.5" x1="20" y1="115" x2="2500" y2="115" /><text id="t1" stroke="none" x="20" xml:space="preserve" y="130"><tspan dx="10" dy="-5" id="ts1" font-family="sans-serif" font-size="70%">brad.adams@enron.com</tspan></text><line stroke="black" stroke-width="0.5" x1="20" y1="130" x2="2500" y2="130" /><text id="t1" stroke="none" x="20" xml:space="preserve" y="145"><tspan dx="10" dy="-5" id="ts1" font-family="sans-serif" font-size="70%">wang@poppleton.edu</tspan></text><line stroke="black" stroke-width="0.5" x1="20" y1="145" x2="2500" y2="145" /><text id="t1" stroke="none" x="20" xml:space="preserve" y="160"><tspan dx="10" dy="-5" id="ts1" font-family="sans-serif" font-size="70%">carol.green@enron.com</tspan></text><line stroke="black" stroke-width="0.5" x1="20" y1="160" x2="2500" y2="160" /><text id="t1" stroke="none" x="20" xml:space="preserve" y="175"><tspan dx="10" dy="-5" id="ts1" font-family="sans-serif" font-size="70%">chat.harris@enron.com</tspan></text><line stroke="black" stroke-width="0.5" x1="20" y1="175" x2="2500" y2="175" /><text id="t1" stroke="none" x="20" xml:space="preserve" y="190"><tspan dx="10" dy="-5" id="ts1" font-family="sans-serif" font-size="70%">christie.stephens@enron.com</tspan></text><line stroke="black" stroke-width="0.5" x1="20" y1="190" x2="2500" y2="190" /><text id="t1" stroke="none" x="20" xml:space="preserve" y="205"><tspan dx="10" dy="-5" id="ts1" font-family="sans-serif" font-size="70%">murraye@poppleton.edu</tspan></text><line stroke="black" stroke-width="0.5" x1="20" y1="205" x2="2500" y2="205" /><text id="t1" stroke="none" x="20" xml:space="preserve" y="220"><tspan dx="10" dy="-5" id="ts1" font-family="sans-serif" font-size="70%">donna.gottker@poppleton.edu</tspan></text><line stroke="black" stroke-width="0.5" x1="20" y1="220" x2="2500" y2="220" /><text id="t1" stroke="none" x="20" xml:space="preserve" y="235"><tspan dx="10" dy="-5" id="ts1" font-family="sans-serif" font-size="70%">dorothy.walton@enron.com</tspan></text><line stroke="black" stroke-width="0.5" x1="20" y1="235" x2="2500" y2="235" /><text id="t1" stroke="none" x="20" xml:space="preserve" y="250"><tspan dx="10" dy="-5" id="ts1" font-family="sans-serif" font-size="70%">choi@poppleton.edu</tspan></text><line stroke="black" stroke-width="0.5" x1="20" y1="250" x2="2500" y2="250" /><text id="t1" stroke="none" x="20" xml:space="preserve" y="265"><tspan dx="10" dy="-5" id="ts1" font-family="sans-serif" font-size="70%">hillh@poppleton.edu</tspan></text><line stroke="black" stroke-width="0.5" x1="20" y1="265" x2="2500" y2="265" /><text id="t1" stroke="none" x="20" xml:space="preserve" y="280"><tspan dx="10" dy="-5" id="ts1" font-family="sans-serif" font-size="70%">j.smith@enron.com</tspan></text><line stroke="black" stroke-width="0.5" x1="20" y1="280" x2="2500" y2="280" /><text id="t1" stroke="none" x="20" xml:space="preserve" y="295"><tspan dx="10" dy="-5" id="ts1" font-family="sans-serif" font-size="70%">jeff.skilwildeg@enron.com</tspan></text><line stroke="black" stroke-width="0.5" x1="20" y1="295" x2="2500" y2="295" /><text id="t1" stroke="none" x="20" xml:space="preserve" y="310"><tspan dx="10" dy="-5" id="ts1" font-family="sans-serif" font-size="70%">jeffrey.theo@enron.com</tspan></text><line stroke="black" stroke-width="0.5" x1="20" y1="310" x2="2500" y2="310" /><text id="t1" stroke="none" x="20" xml:space="preserve" y="325"><tspan dx="10" dy="-5" id="ts1" font-family="sans-serif" font-size="70%">jo.kanda@enron.com</tspan></text><line stroke="black" stroke-width="0.5" x1="20" y1="325" x2="2500" y2="325" /><text id="t1" stroke="none" x="20" xml:space="preserve" y="340"><tspan dx="10" dy="-5" id="ts1" font-family="sans-serif" font-size="70%">kayla.tate@enron.com</tspan></text><line stroke="black" stroke-width="0.5" x1="20" y1="340" x2="2500" y2="340" /><text id="t1" stroke="none" x="20" xml:space="preserve" y="355"><tspan dx="10" dy="-5" id="ts1" font-family="sans-serif" font-size="70%">lucy.jane@enron.com</tspan></text><line stroke="black" stroke-width="0.5" x1="20" y1="355" x2="2500" y2="355" /><text id="t1" stroke="none" x="20" xml:space="preserve" y="370"><tspan dx="10" dy="-5" id="ts1" font-family="sans-serif" font-size="70%">ljon@aol.com</tspan></text><line stroke="black" stroke-width="0.5" x1="20" y1="370" x2="2500" y2="370" /><text id="t1" stroke="none" x="20" xml:space="preserve" y="385"><tspan dx="10" dy="-5" id="ts1" font-family="sans-serif" font-size="70%">martin.wilde@enron.com</tspan></text><line stroke="black" stroke-width="0.5" x1="20" y1="385" x2="2500" y2="385" /><text id="t1" stroke="none" x="20" xml:space="preserve" y="400"><tspan dx="10" dy="-5" id="ts1" font-family="sans-serif" font-size="70%">mewildeda.priller@enron.com</tspan></text><line stroke="black" stroke-width="0.5" x1="20" y1="400" x2="2500" y2="400" /><text id="t1" stroke="none" x="20" xml:space="preserve" y="415"><tspan dx="10" dy="-5" id="ts1" font-family="sans-serif" font-size="70%">melissa.jones@enron.com</tspan></text><line stroke="black" stroke-width="0.5" x1="20" y1="415" x2="2500" y2="415" /><text id="t1" stroke="none" x="20" xml:space="preserve" y="430"><tspan dx="10" dy="-5" id="ts1" font-family="sans-serif" font-size="70%">paul.radfield@enron.com</tspan></text><line stroke="black" stroke-width="0.5" x1="20" y1="430" x2="2500" y2="430" /><text id="t1" stroke="none" x="20" xml:space="preserve" y="445"><tspan dx="10" dy="-5" id="ts1" font-family="sans-serif" font-size="70%">dave.brubeck@enron.com</tspan></text><line stroke="black" stroke-width="0.5" x1="20" y1="445" x2="2500" y2="445" /><text id="t1" stroke="none" x="20" xml:space="preserve" y="460"><tspan dx="10" dy="-5" id="ts1" font-family="sans-serif" font-size="70%">ravi.kemp@enron.com</tspan></text><line stroke="black" stroke-width="0.5" x1="20" y1="460" x2="2500" y2="460" /><text id="t1" stroke="none" x="20" xml:space="preserve" y="475"><tspan dx="10" dy="-5" id="ts1" font-family="sans-serif" font-size="70%">sue.darcy@enron.com</tspan></text><line stroke="black" stroke-width="0.5" x1="20" y1="475" x2="2500" y2="475" /><text id="t1" stroke="none" x="20" xml:space="preserve" y="490"><tspan dx="10" dy="-5" id="ts1" font-family="sans-serif" font-size="70%">shalesh.ganjoo@enron.com</tspan></text><line stroke="black" stroke-width="0.5" x1="20" y1="490" x2="2500" y2="490" /><text id="t1" stroke="none" x="20" xml:space="preserve" y="505"><tspan dx="10" dy="-5" id="ts1" font-family="sans-serif" font-size="70%">shirley.tate@enron.com</tspan></text><line stroke="black" stroke-width="0.5" x1="20" y1="505" x2="2500" y2="505" /><text id="t1" stroke="none" x="20" xml:space="preserve" y="520"><tspan dx="10" dy="-5" id="ts1" font-family="sans-serif" font-size="70%">stinson.zhang@enron.com</tspan></text><line stroke="black" stroke-width="0.5" x1="20" y1="520" x2="2500" y2="520" /><text id="t1" stroke="none" x="20" xml:space="preserve" y="535"><tspan dx="10" dy="-5" id="ts1" font-family="sans-serif" font-size="70%">sue.simpton@enron.com</tspan></text><line stroke="black" stroke-width="0.5" x1="20" y1="535" x2="2500" y2="535" /><text id="t1" stroke="none" x="20" xml:space="preserve" y="550"><tspan dx="10" dy="-5" id="ts1" font-family="sans-serif" font-size="70%">susan.song@poppleton.edu</tspan></text><line stroke="black" stroke-width="0.5" x1="20" y1="550" x2="2500" y2="550" /><text id="t1" stroke="none" x="20" xml:space="preserve" y="565"><tspan dx="10" dy="-5" id="ts1" font-family="sans-serif" font-size="70%">thomas.cunlife@enron.com</tspan></text><line stroke="black" stroke-width="0.5" x1="20" y1="565" x2="2500" y2="565" /><text id="t1" stroke="none" x="20" xml:space="preserve" y="580"><tspan dx="10" dy="-5" id="ts1" font-family="sans-serif" font-size="70%">tom.cunlife@enron.com</tspan></text><line stroke="black" stroke-width="0.5" x1="20" y1="580" x2="2500" y2="580" /><text id="t1" stroke="none" x="20" xml:space="preserve" y="595"><tspan dx="10" dy="-5" id="ts1" font-family="sans-serif" font-size="70%">tom.cunlife@enroncommunications.enron.net</tspan></text><line stroke="black" stroke-width="0.5" x1="20" y1="595" x2="2500" y2="595" /><text id="t1" stroke="none" x="20" xml:space="preserve" y="610"><tspan dx="10" dy="-5" id="ts1" font-family="sans-serif" font-size="70%">vince.j.smith@enron.com</tspan></text><line stroke="black" stroke-width="0.5" x1="20" y1="610" x2="2500" y2="610" /><text id="t1" stroke="none" x="20" xml:space="preserve" y="625"><tspan dx="10" dy="-5" id="ts1" font-family="sans-serif" font-size="70%">vince.smith@enron.com</tspan></text><line stroke="black" stroke-width="0.5" x1="20" y1="625" x2="2500" y2="625" /><text id="t1" stroke="none" x="20" xml:space="preserve" y="640"><tspan dx="10" dy="-5" id="ts1" font-family="sans-serif" font-size="70%">vsmith@enron.com</tspan></text><line stroke="black" stroke-width="0.5" x1="20" y1="640" x2="2500" y2="640" /><text id="t1" stroke="none" x="20" xml:space="preserve" y="655"><tspan dx="10" dy="-5" id="ts1" font-family="sans-serif" font-size="70%">vsmith@aol.com</tspan></text><line stroke="black" stroke-width="0.5" x1="20" y1="655" x2="2500" y2="655" /><text id="t1" stroke="none" x="20" xml:space="preserve" y="670"><tspan dx="10" dy="-5" id="ts1" font-family="sans-serif" font-size="70%">vsmith@palm.net</tspan></text><line stroke="black" stroke-width="0.5" x1="20" y1="670" x2="2500" y2="670" /><!-- vertical email wildees with wildeks --><g id="messages" stroke="black"><a xlink:href="jones/4606.eml"><path d="M 270,625 V 460" stroke="black" /></a><a xlink:href="jones/4605.eml"><path d="M 290,625 V 460" stroke="black" /></a><a xlink:href="jones/4595.eml"><path d="M 310,625 V 370 V 505 V 655" stroke="black" /></a><a xlink:href="jones/4594.eml"><path d="M 330,145 V 625" stroke="black" /></a><a xlink:href="jones/10728.eml"><path d="M 350,145 V 625" stroke="black" /></a><a xlink:href="jones/10726.eml"><path d="M 370,625 V 460" stroke="black" /></a><a xlink:href="jones/107.eml"><path d="M 390,145 V 625" stroke="black" /></a><a xlink:href="jones/4639.eml"><path d="M 410,625 V 655" stroke="black" /></a><a xlink:href="jones/4584.eml"><path d="M 430,625 V 655" stroke="black" /></a><a xlink:href="jones/4583.eml"><path d="M 450,625 V 655" stroke="black" /></a><a xlink:href="jones/10680.eml"><path d="M 470,625 V 655" stroke="black" /></a><a xlink:href="jones/4795.eml"><path d="M 490,250 V 625" stroke="black" /></a><a xlink:href="jones/106.eml"><path d="M 510,250 V 625" stroke="black" /></a><a xlink:href="jones/10493.eml"><path d="M 530,250 V 625" stroke="black" /></a><a xlink:href="jones/4857.eml"><path d="M 550,625 V 580" stroke="black" /></a><a xlink:href="jones/4847.eml"><path d="M 570,460 V 520 V 625" stroke="black" /></a><a xlink:href="jones/4796.eml"><path d="M 590,625 V 250 V 460 V 625" stroke="black" /></a><a xlink:href="jones/4477.eml"><path d="M 610,625 V 250 V 460 V 625" stroke="black" /></a><a xlink:href="jones/4476.eml"><path d="M 630,625 V 250 V 460 V 625" stroke="black" /></a><a xlink:href="jones/4474.eml"><path d="M 650,625 V 580" stroke="black" /></a><a xlink:href="jones/4473.eml"><path d="M 670,625 V 580" stroke="black" /></a><a xlink:href="jones/123.eml"><path d="M 690,460 V 520 V 625" stroke="black" /></a><a xlink:href="jones/105.eml"><path d="M 710,625 V 250 V 460 V 625" stroke="black" /></a><a xlink:href="jones/10421.eml"><path d="M 730,460 V 520 V 625" stroke="black" /></a><a xlink:href="jones/10416.eml"><path d="M 750,625 V 250 V 460 V 625" stroke="black" /></a><a xlink:href="jones/10408.eml"><path d="M 770,625 V 580" stroke="black" /></a><a xlink:href="jones/4890.eml"><path d="M 790,625 V 460 V 520 V 565" stroke="black" /></a><a xlink:href="jones/4458.eml"><path d="M 810,625 V 460 V 520 V 565" stroke="black" /></a><a xlink:href="jones/4457.eml"><path d="M 830,625 V 460 V 520 V 565" stroke="black" /></a><a xlink:href="jones/10361.eml"><path d="M 850,625 V 100 V 625" stroke="black" /></a><a xlink:href="jones/10360.eml"><path d="M 870,625 V 460 V 520 V 565" stroke="black" /></a><a xlink:href="jones/4910.eml"><path d="M 890,625 V 655" stroke="black" /></a><a xlink:href="jones/4908.eml"><path d="M 910,100 V 610" stroke="black" /></a><a xlink:href="jones/4446.eml"><path d="M 930,625 V 655" stroke="black" /></a><a xlink:href="jones/4445.eml"><path d="M 950,625 V 655" stroke="black" /></a><a xlink:href="jones/104.eml"><path d="M 970,100 V 610" stroke="black" /></a><a xlink:href="jones/10333.eml"><path d="M 990,625 V 100 V 625 V 655" stroke="black" /></a><a xlink:href="jones/10326.eml"><path d="M 1010,100 V 610" stroke="black" /></a><a xlink:href="jones/10323.eml"><path d="M 1030,625 V 655" stroke="black" /></a><a xlink:href="jones/10279.eml"><path d="M 1050,625 V 460 V 520 V 565 V 625" stroke="black" /></a><a xlink:href="jones/107b.eml"><path d="M 1070,580 V 625" stroke="black" /></a><a xlink:href="jones/10257.eml"><path d="M 1090,580 V 625" stroke="black" /></a><a xlink:href="jones/4412.eml"><path d="M 1110,625 V 100 V 370 V 625 V 655" stroke="black" /></a><a xlink:href="jones/4411.eml"><path d="M 1130,625 V 100 V 370 V 625 V 655" stroke="black" /></a><a xlink:href="jones/10239.eml"><path d="M 1150,625 V 100 V 370 V 625 V 655" stroke="black" /></a><a xlink:href="jones/102.eml"><path d="M 1170,625 V 100 V 370 V 625 V 655" stroke="black" /></a><a xlink:href="jones/5065.eml"><path d="M 1190,625 V 520 V 565 V 625" stroke="black" /></a><a xlink:href="jones/4357.eml"><path d="M 1210,625 V 520 V 565 V 625" stroke="black" /></a><a xlink:href="jones/4356.eml"><path d="M 1230,625 V 520 V 565 V 625" stroke="black" /></a><a xlink:href="jones/101.eml"><path d="M 1250,625 V 520 V 565 V 625" stroke="black" /></a><a xlink:href="jones/10097.eml"><path d="M 1270,625 V 520 V 565 V 625" stroke="black" /></a><a xlink:href="jones/99.eml"><path d="M 1290,505 V 100 V 520 V 580 V 625" stroke="black" /></a><a xlink:href="jones/98.eml"><path d="M 1310,100 V 115 V 505 V 520 V 595 V 610" stroke="black" /></a><a xlink:href="jones/5096.eml"><path d="M 1330,100 V 115 V 505 V 520 V 595 V 610" stroke="black" /></a><a xlink:href="jones/10063.eml"><path d="M 1350,625 V 100 V 505 V 520 V 625" stroke="black" /></a><a xlink:href="jones/10055.eml"><path d="M 1370,505 V 100 V 520 V 580 V 625" stroke="black" /></a><a xlink:href="jones/10043.eml"><path d="M 1390,100 V 115 V 505 V 520 V 595 V 610" stroke="black" /></a><a xlink:href="jones/9410.eml"><path d="M 1410,625 V 460 V 520 V 565 V 625" stroke="black" /></a><a xlink:href="jones/9406.eml"><path d="M 1430,580 V 625" stroke="black" /></a><a xlink:href="jones/63b.eml"><path d="M 1450,625 V 460 V 520 V 565 V 625" stroke="black" /></a><a xlink:href="jones/61b.eml"><path d="M 1470,580 V 625" stroke="black" /></a><a xlink:href="jones/5526.eml"><path d="M 1490,625 V 460 V 520 V 565 V 625" stroke="black" /></a><a xlink:href="jones/4053.eml"><path d="M 1510,625 V 460 V 520 V 565 V 625" stroke="black" /></a><a xlink:href="jones/4052.eml"><path d="M 1530,625 V 460 V 520 V 565 V 625" stroke="black" /></a><a xlink:href="jones/9342.eml"><path d="M 1550,625 V 100 V 520 V 625" stroke="black" /></a><a xlink:href="jones/4027.eml"><path d="M 1570,625 V 100 V 520 V 625" stroke="black" /></a><a xlink:href="jones/4026.eml"><path d="M 1590,625 V 100 V 520 V 625" stroke="black" /></a><a xlink:href="jones/9312.eml"><path d="M 1610,625 V 100 V 520 V 625" stroke="black" /></a><a xlink:href="jones/97.eml"><path d="M 1630,625 V 100 V 520 V 625" stroke="black" /></a><a xlink:href="jones/9305.eml"><path d="M 1650,625 V 100 V 520 V 625" stroke="black" /></a><a xlink:href="jones/4009.eml"><path d="M 1670,625 V 100 V 520 V 625" stroke="black" /></a><a xlink:href="jones/4008.eml"><path d="M 1690,625 V 100 V 520 V 625" stroke="black" /></a><a xlink:href="jones/95.eml"><path d="M 1710,520 V 625" stroke="black" /></a><a xlink:href="jones/9230.eml"><path d="M 1730,520 V 625" stroke="black" /></a><a xlink:href="jones/5638.eml"><path d="M 1750,520 V 625" stroke="black" /></a><a xlink:href="jones/9167.eml"><path d="M 1770,625 V 655" stroke="black" /></a><a xlink:href="jones/5673.eml"><path d="M 1790,625 V 655" stroke="black" /></a><a xlink:href="jones/3961.eml"><path d="M 1810,625 V 655" stroke="black" /></a><a xlink:href="jones/3960.eml"><path d="M 1830,625 V 655" stroke="black" /></a><a xlink:href="jones/93.eml"><path d="M 1850,505 V 160 V 175 V 235 V 340 V 355 V 415 V 445 V 475 V 520 V 535 V 625" stroke="black" /></a><a xlink:href="jones/9153.eml"><path d="M 1870,505 V 160 V 175 V 235 V 340 V 355 V 415 V 445 V 475 V 520 V 535 V 625" stroke="black" /></a><a xlink:href="jones/5686.eml"><path d="M 1890,505 V 160 V 175 V 235 V 340 V 355 V 415 V 445 V 475 V 520 V 535 V 625" stroke="black" /></a><a xlink:href="jones/5727.eml"><path d="M 1910,625 V 295 V 310 V 625" stroke="black" /></a><a xlink:href="jones/5.eml"><path d="M 1930,625 V 295 V 310 V 625" stroke="black" /></a><a xlink:href="jones/3904.eml"><path d="M 1950,625 V 295 V 310 V 625" stroke="black" /></a><a xlink:href="jones/3903.eml"><path d="M 1970,625 V 295 V 310 V 625" stroke="black" /></a><a xlink:href="jones/240.eml"><path d="M 1990,625 V 295 V 310 V 625" stroke="black" /></a><a xlink:href="jones/69.eml"><path d="M 2010,100 V 520 V 610" stroke="black" /></a><a xlink:href="jones/5330.eml"><path d="M 2030,100 V 520 V 610" stroke="black" /></a><a xlink:href="jones/262.eml"><path d="M 2050,100 V 520 V 610" stroke="black" /></a><a xlink:href="jones/67.eml"><path d="M 2070,520 V 100 V 610" stroke="black" /></a><a xlink:href="jones/5051.eml"><path d="M 2090,520 V 100 V 610" stroke="black" /></a><a xlink:href="jones/66.eml"><path d="M 2110,100 V 520 V 610" stroke="black" /></a><a xlink:href="jones/541.eml"><path d="M 2130,100 V 520 V 610" stroke="black" /></a><a xlink:href="jones/4927.eml"><path d="M 2150,100 V 520 V 610" stroke="black" /></a><a xlink:href="jones/643.eml"><path d="M 2170,505 V 325 V 355 V 520 V 625" stroke="black" /></a><a xlink:href="jones/4792.eml"><path d="M 2190,505 V 325 V 355 V 520 V 625" stroke="black" /></a><a xlink:href="jones/4791.eml"><path d="M 2210,520 V 100 V 505 V 625" stroke="black" /></a><a xlink:href="jones/19.eml"><path d="M 2230,505 V 325 V 355 V 520 V 625" stroke="black" /></a><a xlink:href="jones/18.eml"><path d="M 2250,520 V 100 V 505 V 625" stroke="black" /></a><a xlink:href="jones/759.eml"><path d="M 2270,85 V 625" stroke="black" /></a><a xlink:href="jones/4640.eml"><path d="M 2290,85 V 625" stroke="black" /></a><a xlink:href="jones/16.eml"><path d="M 2310,85 V 625" stroke="black" /></a><a xlink:href="jones/891.eml"><path d="M 2330,100 V 520 V 610" stroke="black" /></a><a xlink:href="jones/64.eml"><path d="M 2350,100 V 520 V 610" stroke="black" /></a><a xlink:href="jones/4463.eml"><path d="M 2370,100 V 520 V 610" stroke="black" /></a><a xlink:href="jones/63.eml"><path d="M 2390,520 V 430 V 625" stroke="black" /></a><a xlink:href="jones/62.eml"><path d="M 2410,520 V 100 V 625" stroke="black" /></a><a xlink:href="jones/61.eml"><path d="M 2430,100 V 520 V 610" stroke="black" /></a><a xlink:href="jones/4201.eml"><path d="M 2450,520 V 430 V 625" stroke="black" /></a><a xlink:href="jones/4200.eml"><path d="M 2470,520 V 100 V 625" stroke="black" /></a><a xlink:href="jones/4199.eml"><path d="M 2490,100 V 520 V 610" stroke="black" /></a><a xlink:href="jones/1090.eml"><path d="M 2510,100 V 520 V 610" stroke="black" /></a><a xlink:href="jones/1089.eml"><path d="M 2530,520 V 430 V 625" stroke="black" /></a><a xlink:href="jones/4191.eml"><path d="M 2550,670 V 640" stroke="black" /></a><a xlink:href="jones/283.eml"><path d="M 2570,670 V 640" stroke="black" /></a><a xlink:href="jones/1100.eml"><path d="M 2590,670 V 640" stroke="black" /></a><a xlink:href="jones/60.eml"><path d="M 2610,625 V 100 V 625" stroke="black" /></a><a xlink:href="jones/4144.eml"><path d="M 2630,625 V 100 V 625" stroke="black" /></a><a xlink:href="jones/1909.eml"><path d="M 2650,625 V 100 V 625" stroke="black" /></a><a xlink:href="jones/1908.eml"><path d="M 2670,625 V 100 V 625" stroke="black" /></a><a xlink:href="jones/1091.eml"><path d="M 2690,625 V 100 V 625" stroke="black" /></a><a xlink:href="jones/59.eml"><path d="M 2710,625 V 100 V 625 V 655" stroke="black" /></a><a xlink:href="jones/4122.eml"><path d="M 2730,625 V 100 V 625 V 655" stroke="black" /></a><a xlink:href="jones/1899.eml"><path d="M 2750,625 V 100 V 625 V 655" stroke="black" /></a><a xlink:href="jones/1898.eml"><path d="M 2770,625 V 100 V 625 V 655" stroke="black" /></a><a xlink:href="jones/58.eml"><path d="M 2790,100 V 250 V 610 V 655" stroke="black" /></a><a xlink:href="jones/4040.eml"><path d="M 2810,100 V 250 V 610 V 655" stroke="black" /></a><a xlink:href="jones/1206.eml"><path d="M 2830,100 V 250 V 610 V 655" stroke="black" /></a><a xlink:href="jones/57.eml"><path d="M 2850,655 V 640 V 655" stroke="black" /></a><a xlink:href="jones/4031.eml"><path d="M 2870,655 V 640 V 655" stroke="black" /></a><a xlink:href="jones/1214.eml"><path d="M 2890,655 V 640 V 655" stroke="black" /></a><a xlink:href="jones/56.eml"><path d="M 2910,520 V 625" stroke="black" /></a><a xlink:href="jones/3969.eml"><path d="M 2930,625 V 655" stroke="black" /></a><a xlink:href="jones/3948.eml"><path d="M 2950,520 V 430 V 625" stroke="black" /></a><a xlink:href="jones/3947.eml"><path d="M 2970,520 V 625" stroke="black" /></a><a xlink:href="jones/1834.eml"><path d="M 2990,625 V 655" stroke="black" /></a><a xlink:href="jones/1833.eml"><path d="M 3010,625 V 655" stroke="black" /></a><a xlink:href="jones/15.eml"><path d="M 3030,520 V 430 V 625" stroke="black" /></a><a xlink:href="jones/1277.eml"><path d="M 3050,520 V 625" stroke="black" /></a><a xlink:href="jones/1276.eml"><path d="M 3070,520 V 430 V 625" stroke="black" /></a><a xlink:href="jones/1260.eml"><path d="M 3090,625 V 655" stroke="black" /></a><a xlink:href="jones/55.eml"><path d="M 3110,100 V 250 V 610 V 655" stroke="black" /></a><a xlink:href="jones/54.eml"><path d="M 3130,655 V 100 V 640" stroke="black" /></a><a xlink:href="jones/3937.eml"><path d="M 3150,100 V 250 V 610 V 655" stroke="black" /></a><a xlink:href="jones/3935.eml"><path d="M 3170,655 V 100 V 640" stroke="black" /></a><a xlink:href="jones/1294.eml"><path d="M 3190,655 V 100 V 640" stroke="black" /></a><a xlink:href="jones/1292.eml"><path d="M 3210,100 V 250 V 610 V 655" stroke="black" /></a><a xlink:href="jones/53.eml"><path d="M 3230,655 V 640" stroke="black" /></a><a xlink:href="jones/52.eml"><path d="M 3250,655 V 100 V 640" stroke="black" /></a><a xlink:href="jones/3814.eml"><path d="M 3270,655 V 640" stroke="black" /></a><a xlink:href="jones/3813.eml"><path d="M 3290,655 V 100 V 640" stroke="black" /></a><a xlink:href="jones/1385.eml"><path d="M 3310,655 V 100 V 640" stroke="black" /></a><a xlink:href="jones/1384.eml"><path d="M 3330,655 V 640" stroke="black" /></a><a xlink:href="jones/46.eml"><path d="M 3350,625 V 100 V 520 V 625" stroke="black" /></a><a xlink:href="jones/2447.eml"><path d="M 3370,625 V 100 V 520 V 625" stroke="black" /></a><a xlink:href="jones/1144.eml"><path d="M 3390,625 V 100 V 520 V 625" stroke="black" /></a><a xlink:href="jones/1143.eml"><path d="M 3410,625 V 100 V 520 V 625" stroke="black" /></a><a xlink:href="jones/45.eml"><path d="M 3430,520 V 625" stroke="black" /></a><a xlink:href="jones/2440.eml"><path d="M 3450,520 V 625" stroke="black" /></a><a xlink:href="jones/2361.eml"><path d="M 3470,520 V 625" stroke="black" /></a><a xlink:href="jones/9.eml"><path d="M 3490,520 V 385 V 625" stroke="black" /></a><a xlink:href="jones/2859.eml"><path d="M 3510,520 V 385 V 625" stroke="black" /></a><a xlink:href="jones/1776.eml"><path d="M 3530,520 V 385 V 625" stroke="black" /></a><a xlink:href="jones/44.eml"><path d="M 3550,520 V 385 V 625" stroke="black" /></a><a xlink:href="jones/3030.eml"><path d="M 3570,520 V 385 V 625" stroke="black" /></a><a xlink:href="jones/1552.eml"><path d="M 3590,520 V 385 V 625" stroke="black" /></a><a xlink:href="jones/7b.eml"><path d="M 3610,520 V 385 V 625" stroke="black" /></a><a xlink:href="jones/3055.eml"><path d="M 3630,520 V 385 V 625" stroke="black" /></a><a xlink:href="jones/1514.eml"><path d="M 3650,520 V 385 V 625" stroke="black" /></a><a xlink:href="jones/4.eml"><path d="M 3670,520 V 385 V 625" stroke="black" /></a><a xlink:href="jones/3195.eml"><path d="M 3690,520 V 385 V 625" stroke="black" /></a><a xlink:href="jones/1335.eml"><path d="M 3710,520 V 385 V 625" stroke="black" /></a><a xlink:href="jones/3290.eml"><path d="M 3730,520 V 130 V 385 V 490 V 505 V 625" stroke="black" /></a><a xlink:href="jones/3.eml"><path d="M 3750,520 V 130 V 385 V 490 V 505 V 625" stroke="black" /></a><a xlink:href="jones/1213.eml"><path d="M 3770,520 V 130 V 385 V 490 V 505 V 625" stroke="black" /></a><a xlink:href="jones/497b.eml"><path d="M 3790,625 V 100 V 625 V 655" stroke="black" /></a><a xlink:href="jones/497.eml"><path d="M 3810,625 V 100 V 625 V 655" stroke="black" /></a><a xlink:href="jones/3371.eml"><path d="M 3830,625 V 100 V 625 V 655" stroke="black" /></a><a xlink:href="jones/1121.eml"><path d="M 3850,625 V 100 V 625 V 655" stroke="black" /></a><a xlink:href="jones/724.eml"><path d="M 3870,550 V 100 V 205 V 220 V 265 V 610" stroke="black" /></a><a xlink:href="jones/3697.eml"><path d="M 3890,550 V 100 V 205 V 220 V 265 V 610" stroke="black" /></a><a xlink:href="jones/28.eml"><path d="M 3910,550 V 100 V 205 V 220 V 265 V 610" stroke="black" /></a><a xlink:href="jones/8.eml"><path d="M 3930,625 V 550 V 625" stroke="black" /></a><a xlink:href="jones/710.eml"><path d="M 3950,625 V 550 V 625" stroke="black" /></a><a xlink:href="jones/707.eml"><path d="M 3970,625 V 190 V 625" stroke="black" /></a><a xlink:href="jones/706.eml"><path d="M 3990,625 V 505" stroke="black" /></a><a xlink:href="jones/7.eml"><path d="M 4010,625 V 190 V 625" stroke="black" /></a><a xlink:href="jones/691.eml"><path d="M 4030,190 V 400 V 505 V 625" stroke="black" /></a><a xlink:href="jones/6.eml"><path d="M 4050,190 V 400 V 505 V 625" stroke="black" /></a><a xlink:href="jones/3728.eml"><path d="M 4070,190 V 400 V 505 V 625" stroke="black" /></a><a xlink:href="jones/3715.eml"><path d="M 4090,625 V 505" stroke="black" /></a><a xlink:href="jones/3713.eml"><path d="M 4110,625 V 190 V 625" stroke="black" /></a><a xlink:href="jones/3698.eml"><path d="M 4130,625 V 550 V 625" stroke="black" /></a><a xlink:href="jones/305b.eml"><path d="M 4150,625 V 550 V 625" stroke="black" /></a><a xlink:href="jones/305.eml"><path d="M 4170,625 V 550 V 625" stroke="black" /></a><a xlink:href="jones/304b.eml"><path d="M 4190,625 V 190 V 625" stroke="black" /></a><a xlink:href="jones/304.eml"><path d="M 4210,625 V 190 V 625" stroke="black" /></a><a xlink:href="jones/303b.eml"><path d="M 4230,625 V 505" stroke="black" /></a><a xlink:href="jones/303.eml"><path d="M 4250,625 V 505" stroke="black" /></a><a xlink:href="jones/26.eml"><path d="M 4270,625 V 550 V 625" stroke="black" /></a><a xlink:href="jones/25.eml"><path d="M 4290,625 V 190 V 625" stroke="black" /></a><a xlink:href="jones/24.eml"><path d="M 4310,190 V 400 V 505 V 625" stroke="black" /></a><a xlink:href="jones/397.eml"><path d="M 4330,100 V 100 V 280" stroke="black" /></a></g>
</svg>

 