<?xml version="1.0" encoding="UTF-8" standalone="no"?>
<svg
   xmlns:dc="http://purl.org/dc/elements/1.1/"
   xmlns:cc="http://creativecommons.org/ns#"
   xmlns:rdf="http://www.w3.org/1999/02/22-rdf-syntax-ns#"
   xmlns:svg="http://www.w3.org/2000/svg"
   xmlns="http://www.w3.org/2000/svg"
   xmlns:xlink="http://www.w3.org/1999/xlink"

   

   width="2220" height="735" id="svg2" ><defs id="defs1">
    <style type="text/css"><![CDATA[
   //#messages path {stroke-linecap:round; stroke-linejoin:round; stroke:dimgray; stroke-width: 4px;  marker-start:url(#circle-sender); marker-mid:url(#to-square); marker-end:url(#to-square); } //
   #threads path {stroke:black; stroke-width: 1px; } // stroke-dasharray: 5px, 7px; }
  // defs path { marker-mid:none; marker-end:none; }
    ]]></style>
     
    <symbol id="circle" >
      <circle cx="8" cy="8" r="5" stroke="navy" fill="black" stroke-width="2"  />
    </symbol>

    <symbol id="sq" >
      <rect x="0" y="0" width="16" height="16" stroke="navy" fill="white" stroke-width="2"  />
    </symbol>

<!-- agent symbols -->

 <symbol id="From" viewBox="0 0 16 16">
  <desc>MySymbol - four rectangles in a grid</desc>
 <!-- <rect x="0" y="0" width="16" height="16" stroke="black" fill="white" stroke-width="1"  />  -->
  <circle cx="8" cy="8" r="5" stroke="black" fill="black" stroke-width="2"  />
 </symbol>

 <symbol id="To" width="16" height="16"  viewBox="0 0 16 16">
  <rect x="0" y="0" width="16" height="16" stroke="black" fill="lightblue" stroke-width="1"  />
 <!-- <text stroke="black" fill="black" x="3.5" y="14" >T</text> -->
 </symbol>
 
 
 <symbol id="Cc" width="16" height="16"  viewBox="0 0 16 16">
  <rect x="0" y="0" width="16" height="16" stroke="black" fill="white" stroke-width="1"  />
<!--  <text stroke="black" fill="black" x="3.5" y="14" >C</text> -->
 </symbol>
 
 
 <symbol id="Bcc" width="16" height="16"  viewBox="0 0 16 16">
  <rect x="0" y="0" width="16" height="16" stroke="black" fill="white" stroke-width="1"  />
<!-- <text stroke="black" fill="black" x="3.5" y="14" >B</text> -->
 </symbol>


<!-- markers -->


<marker id="to-square" viewBox="0 0 16 16" refX="8" refY="8" markerUnits="userSpaceOnUse" markerWidth="16" markerHeight="16" orient="0">
      <use x="0" y="0" xlink:href="#sq" />
    </marker>


    <marker id="Square"  viewBox="0 0 16 16" refX="8" refY="8" markerUnits="userSpaceOnUse" markerWidth="16" markerHeight="16" orient="0">
        <rect x="0" y="0" width="16" height="16" stroke="navy" fill="white" stroke-width="1"  />
    </marker>

    <symbol id="circle"  viewBox="0 0 16 16" refX="8" refY="8" markerUnits="userSpaceOnUse" markerWidth="16" markerHeight="16" orient="0">
      <circle cx="5" cy="5" r="3" stroke="navy" fill="black" stroke-width="2"  />
    </symbol>

    <marker id="circle-sender"  viewBox="0 0 16 16" refX="8" refY="8" markerUnits="userSpaceOnUse" markerWidth="16" markerHeight="16" orient="0">
        <use x="0" y="0" xlink:href="#circle" />
    </marker>

<!--
     <marker id="sender"  viewBox="0 0 10 10" refX="5" refY="5" 
      markerUnits="strokeWidth"
      markerWidth="5" markerHeight="5"
      orient="90deg">
      <circle cx="5" cy="5" r="3"
        stroke="navy" fill="black" stroke-width="2"  />
    </marker> -->

     <marker id="Triangle"  viewBox="0 0 10 10" refX="10" refY="5" 
      markerUnits="strokeWidth"
      markerWidth="5" markerHeight="5"
      orient="auto">
      <path d="M 0 0 L 10 5 L 0 10 z" />
    </marker>



    <marker id="sender-square"  viewBox="0 0 10 10" refX="5" refY="5" 
      markerUnits="strokeWidth"   
      markerWidth="5" markerHeight="5" 
      orient="90deg">
        <rect x="0" y="0" width="10" height="10"
     stroke="navy" fill="black" stroke-width="2"  />
    </marker>

</defs>

  <metadata
     id="metadata7">
    <rdf:RDF>
      <cc:Work
         rdf:about="">
        <dc:format>image/svg+xml</dc:format>
        <dc:type
           rdf:resource="http://purl.org/dc/dcmitype/StillImage" />
      </cc:Work>
    </rdf:RDF>
  </metadata>
<!-- (c)2008 S.De Gabrielle  --><line stroke="#eFeFF0" stroke-width="15" x1="20" y1="47" x2="2500" y2="47" /><text id="t1" stroke="none" x="20" xml:space="preserve" y="55"><tspan dx="10" dy="-5" id="ts1" font-family="sans-serif" font-size="70%">anita.dupont@enron.com</tspan></text> <text id="t1" stroke="none" x="20" xml:space="preserve" y="70"><tspan dx="10" dy="-5" id="ts1" font-family="sans-serif" font-size="70%">bambos@stanford.edu</tspan></text><line stroke="#eFeFF0" stroke-width="15" x1="20" y1="77" x2="2500" y2="77" /><text id="t1" stroke="none" x="20" xml:space="preserve" y="85"><tspan dx="10" dy="-5" id="ts1" font-family="sans-serif" font-size="70%">bambos@stanford.stanford.edu</tspan></text> <text id="t1" stroke="none" x="20" xml:space="preserve" y="100"><tspan dx="10" dy="-5" id="ts1" font-family="sans-serif" font-size="70%">brad.romine@enron.com</tspan></text><line stroke="#eFeFF0" stroke-width="15" x1="20" y1="107" x2="2500" y2="107" /><text id="t1" stroke="none" x="20" xml:space="preserve" y="115"><tspan dx="10" dy="-5" id="ts1" font-family="sans-serif" font-size="70%">bradley@stanford.edu</tspan></text> <text id="t1" stroke="none" x="20" xml:space="preserve" y="130"><tspan dx="10" dy="-5" id="ts1" font-family="sans-serif" font-size="70%">carol.brown@enron.com</tspan></text><line stroke="#eFeFF0" stroke-width="15" x1="20" y1="137" x2="2500" y2="137" /><text id="t1" stroke="none" x="20" xml:space="preserve" y="145"><tspan dx="10" dy="-5" id="ts1" font-family="sans-serif" font-size="70%">chonawee.supatgiat@enron.com</tspan></text> <text id="t1" stroke="none" x="20" xml:space="preserve" y="160"><tspan dx="10" dy="-5" id="ts1" font-family="sans-serif" font-size="70%">christie.patrick@enron.com</tspan></text><line stroke="#eFeFF0" stroke-width="15" x1="20" y1="167" x2="2500" y2="167" /><text id="t1" stroke="none" x="20" xml:space="preserve" y="175"><tspan dx="10" dy="-5" id="ts1" font-family="sans-serif" font-size="70%">clovell@stanford.edu</tspan></text> <text id="t1" stroke="none" x="20" xml:space="preserve" y="190"><tspan dx="10" dy="-5" id="ts1" font-family="sans-serif" font-size="70%">donna.lawrence@stanford.edu</tspan></text><line stroke="#eFeFF0" stroke-width="15" x1="20" y1="197" x2="2500" y2="197" /><text id="t1" stroke="none" x="20" xml:space="preserve" y="205"><tspan dx="10" dy="-5" id="ts1" font-family="sans-serif" font-size="70%">dorothy.dalton@enron.com</tspan></text> <text id="t1" stroke="none" x="20" xml:space="preserve" y="220"><tspan dx="10" dy="-5" id="ts1" font-family="sans-serif" font-size="70%">gappy@stanford.edu</tspan></text><line stroke="#eFeFF0" stroke-width="15" x1="20" y1="227" x2="2500" y2="227" /><text id="t1" stroke="none" x="20" xml:space="preserve" y="235"><tspan dx="10" dy="-5" id="ts1" font-family="sans-serif" font-size="70%">hillh@stanford.edu</tspan></text> <text id="t1" stroke="none" x="20" xml:space="preserve" y="250"><tspan dx="10" dy="-5" id="ts1" font-family="sans-serif" font-size="70%">j.kaminski@enron.com</tspan></text><line stroke="#eFeFF0" stroke-width="15" x1="20" y1="257" x2="2500" y2="257" /><text id="t1" stroke="none" x="20" xml:space="preserve" y="265"><tspan dx="10" dy="-5" id="ts1" font-family="sans-serif" font-size="70%">jeff.skilling@enron.com</tspan></text> <text id="t1" stroke="none" x="20" xml:space="preserve" y="280"><tspan dx="10" dy="-5" id="ts1" font-family="sans-serif" font-size="70%">jeffrey.shankman@enron.com</tspan></text><line stroke="#eFeFF0" stroke-width="15" x1="20" y1="287" x2="2500" y2="287" /><text id="t1" stroke="none" x="20" xml:space="preserve" y="295"><tspan dx="10" dy="-5" id="ts1" font-family="sans-serif" font-size="70%">jo.olsovsky@enron.com</tspan></text> <text id="t1" stroke="none" x="20" xml:space="preserve" y="310"><tspan dx="10" dy="-5" id="ts1" font-family="sans-serif" font-size="70%">kayla.crenshaw@enron.com</tspan></text><line stroke="#eFeFF0" stroke-width="15" x1="20" y1="317" x2="2500" y2="317" /><text id="t1" stroke="none" x="20" xml:space="preserve" y="325"><tspan dx="10" dy="-5" id="ts1" font-family="sans-serif" font-size="70%">lorriep@stanford.edu</tspan></text> <text id="t1" stroke="none" x="20" xml:space="preserve" y="340"><tspan dx="10" dy="-5" id="ts1" font-family="sans-serif" font-size="70%">lucy.marshall@enron.com</tspan></text><line stroke="#eFeFF0" stroke-width="15" x1="20" y1="347" x2="2500" y2="347" /><text id="t1" stroke="none" x="20" xml:space="preserve" y="355"><tspan dx="10" dy="-5" id="ts1" font-family="sans-serif" font-size="70%">ludkam@aol.com</tspan></text> <text id="t1" stroke="none" x="20" xml:space="preserve" y="370"><tspan dx="10" dy="-5" id="ts1" font-family="sans-serif" font-size="70%">martin.lin@enron.com</tspan></text><line stroke="#eFeFF0" stroke-width="15" x1="20" y1="377" x2="2500" y2="377" /><text id="t1" stroke="none" x="20" xml:space="preserve" y="385"><tspan dx="10" dy="-5" id="ts1" font-family="sans-serif" font-size="70%">melinda.mccarty@enron.com</tspan></text> <text id="t1" stroke="none" x="20" xml:space="preserve" y="400"><tspan dx="10" dy="-5" id="ts1" font-family="sans-serif" font-size="70%">melissa.jones@enron.com</tspan></text><line stroke="#eFeFF0" stroke-width="15" x1="20" y1="407" x2="2500" y2="407" /><text id="t1" stroke="none" x="20" xml:space="preserve" y="415"><tspan dx="10" dy="-5" id="ts1" font-family="sans-serif" font-size="70%">paul.racicot@enron.com</tspan></text> <text id="t1" stroke="none" x="20" xml:space="preserve" y="430"><tspan dx="10" dy="-5" id="ts1" font-family="sans-serif" font-size="70%">pinnamaneni.krishnarao@enron.com</tspan></text><line stroke="#eFeFF0" stroke-width="15" x1="20" y1="437" x2="2500" y2="437" /><text id="t1" stroke="none" x="20" xml:space="preserve" y="445"><tspan dx="10" dy="-5" id="ts1" font-family="sans-serif" font-size="70%">ravi.thuraisingham@enron.com</tspan></text> <text id="t1" stroke="none" x="20" xml:space="preserve" y="460"><tspan dx="10" dy="-5" id="ts1" font-family="sans-serif" font-size="70%">samer.takriti@enron.com</tspan></text><line stroke="#eFeFF0" stroke-width="15" x1="20" y1="467" x2="2500" y2="467" /><text id="t1" stroke="none" x="20" xml:space="preserve" y="475"><tspan dx="10" dy="-5" id="ts1" font-family="sans-serif" font-size="70%">shalesh.ganjoo@enron.com</tspan></text> <text id="t1" stroke="none" x="20" xml:space="preserve" y="490"><tspan dx="10" dy="-5" id="ts1" font-family="sans-serif" font-size="70%">shirley.crenshaw@enron.com</tspan></text><line stroke="#eFeFF0" stroke-width="15" x1="20" y1="497" x2="2500" y2="497" /><text id="t1" stroke="none" x="20" xml:space="preserve" y="505"><tspan dx="10" dy="-5" id="ts1" font-family="sans-serif" font-size="70%">stinson.gibner@enron.com</tspan></text> <text id="t1" stroke="none" x="20" xml:space="preserve" y="520"><tspan dx="10" dy="-5" id="ts1" font-family="sans-serif" font-size="70%">sue.wadsworth@enron.com</tspan></text><line stroke="#eFeFF0" stroke-width="15" x1="20" y1="527" x2="2500" y2="527" /><text id="t1" stroke="none" x="20" xml:space="preserve" y="535"><tspan dx="10" dy="-5" id="ts1" font-family="sans-serif" font-size="70%">susan.hansen@stanford.edu</tspan></text> <text id="t1" stroke="none" x="20" xml:space="preserve" y="550"><tspan dx="10" dy="-5" id="ts1" font-family="sans-serif" font-size="70%">thomas.gros@enron.com</tspan></text><line stroke="#eFeFF0" stroke-width="15" x1="20" y1="557" x2="2500" y2="557" /><text id="t1" stroke="none" x="20" xml:space="preserve" y="565"><tspan dx="10" dy="-5" id="ts1" font-family="sans-serif" font-size="70%">tom.gros@enron.com</tspan></text> <text id="t1" stroke="none" x="20" xml:space="preserve" y="580"><tspan dx="10" dy="-5" id="ts1" font-family="sans-serif" font-size="70%">tom.gros@enroncommunications.enron.net</tspan></text><line stroke="#eFeFF0" stroke-width="15" x1="20" y1="587" x2="2500" y2="587" /><text id="t1" stroke="none" x="20" xml:space="preserve" y="595"><tspan dx="10" dy="-5" id="ts1" font-family="sans-serif" font-size="70%">vince.j.kaminski@enron.com</tspan></text> <text id="t1" stroke="none" x="20" xml:space="preserve" y="610"><tspan dx="10" dy="-5" id="ts1" font-family="sans-serif" font-size="70%">vince.kaminski@enron.com</tspan></text><line stroke="#eFeFF0" stroke-width="15" x1="20" y1="617" x2="2500" y2="617" /><text id="t1" stroke="none" x="20" xml:space="preserve" y="625"><tspan dx="10" dy="-5" id="ts1" font-family="sans-serif" font-size="70%">vkamins@enron.com</tspan></text> <text id="t1" stroke="none" x="20" xml:space="preserve" y="640"><tspan dx="10" dy="-5" id="ts1" font-family="sans-serif" font-size="70%">vkaminski@aol.com</tspan></text><line stroke="#eFeFF0" stroke-width="15" x1="20" y1="647" x2="2500" y2="647" /><text id="t1" stroke="none" x="20" xml:space="preserve" y="655"><tspan dx="10" dy="-5" id="ts1" font-family="sans-serif" font-size="70%">vkaminski@palm.net</tspan></text><g  id="threads"   fill="black"  ><g  id="thread"  stroke="violet" ><path stroke="violet" d="M 1470,580 H 1470 V 625 V 580   H 1630 V 625 V 580 " /><path stroke="violet" d="M 1470,688 H 1470 V 640 V 688   H 1630 V 640 V 688 " /><a xlink:href="data/unmodified-dedupes/1384.eml">
<line y1="625" x1="1630" y2="640" x2="1630" />
<use height="16" width="16" x="1622" y="624" xlink:href="#From" />
<use height="16" width="16" x="1622" y="609" xlink:href="#To" />




</a>

<a xlink:href="data/unmodified-dedupes/1214.eml">
<line y1="625" x1="1470" y2="640" x2="1470" />
<use height="16" width="16" x="1462" y="624" xlink:href="#From" />
<use height="16" width="16" x="1462" y="609" xlink:href="#To" />




</a>


</g>
<g  id="thread"  stroke="green" ><path stroke="green" d="M 1210,262 H 1210 V 295 V 262 " /><path stroke="green" d="M 1210,655 H 1210 V 610 V 655 " /><a xlink:href="data/unmodified-dedupes/19.eml">
<line y1="295" x1="1210" y2="610" x2="1210" />
<use height="16" width="16" x="1202" y="474" xlink:href="#From" />
<use height="16" width="16" x="1202" y="594" xlink:href="#To" /><use height="16" width="16" x="1202" y="489" xlink:href="#To" />
<use height="16" width="16" x="1202" y="324" xlink:href="#Cc" /><use height="16" width="16" x="1202" y="279" xlink:href="#Cc" />



</a>


</g>
<g  id="thread"  stroke="violet" ><path stroke="violet" d="M 2170,40 H 2170 V 70 V 40 " /><path stroke="violet" d="M 2170,283 H 2170 V 250 V 283 " /><a xlink:href="data/unmodified-dedupes/397.eml">
<line y1="70" x1="2170" y2="250" x2="2170" />
<use height="16" width="16" x="2162" y="54" xlink:href="#From" />
<use height="16" width="16" x="2162" y="234" xlink:href="#To" />




</a>


</g>
<g  id="thread"  stroke="blue" ><path stroke="blue" d="M 410,184 H 410 V 220 V 184   H 450 V 220 V 184   H 470 V 565 V 184   H 490 V 220 V 184 " /><path stroke="blue" d="M 410,652 H 410 V 610 V 652   H 450 V 610 V 652   H 470 V 610 V 652   H 490 V 610 V 652 " /><a xlink:href="data/unmodified-dedupes/10416.eml">
<line y1="220" x1="450" y2="610" x2="450" />
<use height="16" width="16" x="442" y="594" xlink:href="#From" />
<use height="16" width="16" x="442" y="204" xlink:href="#To" />
<use height="16" width="16" x="442" y="429" xlink:href="#Cc" />



</a>

<a xlink:href="data/synthetic/Kaminski to Paleologo 11 25pm Feb 17 2000.eml">
<line y1="220" x1="490" y2="610" x2="490" />
<use height="16" width="16" x="482" y="594" xlink:href="#From" />
<use height="16" width="16" x="482" y="204" xlink:href="#To" />




</a>

<a xlink:href="data/unmodified-dedupes/10493.eml">
<line y1="220" x1="410" y2="610" x2="410" />
<use height="16" width="16" x="402" y="204" xlink:href="#From" />
<use height="16" width="16" x="402" y="594" xlink:href="#To" />




</a>

<a xlink:href="data/unmodified-dedupes/10408.eml">
<line y1="565" x1="470" y2="610" x2="470" />
<use height="16" width="16" x="462" y="594" xlink:href="#From" />
<use height="16" width="16" x="462" y="549" xlink:href="#To" />




</a>


</g>
<g  id="thread"  stroke="purple" ><path stroke="purple" d="M 430,406 H 430 V 445 V 406 " /><path stroke="purple" d="M 430,658 H 430 V 610 V 658 " /><a xlink:href="data/unmodified-dedupes/10421.eml">
<line y1="445" x1="430" y2="610" x2="430" />
<use height="16" width="16" x="422" y="429" xlink:href="#From" />
<use height="16" width="16" x="422" y="594" xlink:href="#To" /><use height="16" width="16" x="422" y="489" xlink:href="#To" />




</a>


</g>
<g  id="thread"  stroke="darkorange" ><path stroke="darkorange" d="M 1970,40 H 1970 V 70 V 40   H 1990 V 70 V 40   H 2010 V 535 V 40   H 2030 V 160 V 40   H 2050 V 490 V 40   H 2070 V 160 V 40   H 2090 V 535 V 40   H 2110 V 160 V 40   H 2130 V 160 V 40   H 2150 V 160 V 40 " /><path stroke="darkorange" d="M 1970,655 H 1970 V 610 V 655   H 1990 V 595 V 655   H 2010 V 610 V 655   H 2030 V 610 V 655   H 2050 V 610 V 655   H 2070 V 610 V 655   H 2090 V 610 V 655   H 2110 V 490 V 655   H 2130 V 610 V 655   H 2150 V 610 V 655 " /><a xlink:href="data/unmodified-dedupes/24.eml">
<line y1="160" x1="2070" y2="610" x2="2070" />
<use height="16" width="16" x="2062" y="144" xlink:href="#From" />
<use height="16" width="16" x="2062" y="474" xlink:href="#To" /><use height="16" width="16" x="2062" y="369" xlink:href="#To" /><use height="16" width="16" x="2062" y="594" xlink:href="#To" />




</a>

<a xlink:href="data/synthetic/Crenshaw to Patrick 2 21pm Apr 9 2001.eml">
<line y1="160" x1="2110" y2="490" x2="2110" />
<use height="16" width="16" x="2102" y="474" xlink:href="#From" />
<use height="16" width="16" x="2102" y="144" xlink:href="#To" /><use height="16" width="16" x="2102" y="369" xlink:href="#To" />




</a>

<a xlink:href="data/unmodified-dedupes/28.eml">
<line y1="70" x1="1990" y2="595" x2="1990" />
<use height="16" width="16" x="1982" y="519" xlink:href="#From" />
<use height="16" width="16" x="1982" y="579" xlink:href="#To" />
<use height="16" width="16" x="1982" y="159" xlink:href="#Cc" /><use height="16" width="16" x="1982" y="174" xlink:href="#Cc" /><use height="16" width="16" x="1982" y="219" xlink:href="#Cc" /><use height="16" width="16" x="1982" y="54" xlink:href="#Cc" />



</a>

<a xlink:href="data/unmodified-dedupes/25.eml">
<line y1="160" x1="2030" y2="610" x2="2030" />
<use height="16" width="16" x="2022" y="594" xlink:href="#From" />
<use height="16" width="16" x="2022" y="144" xlink:href="#To" />




</a>

<a xlink:href="data/synthetic/Kaminski to Hansen 9 am Apr 6 2001.eml">
<line y1="70" x1="1970" y2="610" x2="1970" />
<use height="16" width="16" x="1962" y="594" xlink:href="#From" />
<use height="16" width="16" x="1962" y="519" xlink:href="#To" />
<use height="16" width="16" x="1962" y="159" xlink:href="#Cc" /><use height="16" width="16" x="1962" y="174" xlink:href="#Cc" /><use height="16" width="16" x="1962" y="219" xlink:href="#Cc" /><use height="16" width="16" x="1962" y="54" xlink:href="#Cc" />



</a>

<a xlink:href="data/unmodified-dedupes/26.eml">
<line y1="535" x1="2010" y2="610" x2="2010" />
<use height="16" width="16" x="2002" y="594" xlink:href="#From" />
<use height="16" width="16" x="2002" y="519" xlink:href="#To" />




</a>

<a xlink:href="data/unmodified-dedupes/7.eml">
<line y1="160" x1="2130" y2="610" x2="2130" />
<use height="16" width="16" x="2122" y="594" xlink:href="#From" />
<use height="16" width="16" x="2122" y="144" xlink:href="#To" />




</a>

<a xlink:href="data/unmodified-dedupes/6.eml">
<line y1="160" x1="2150" y2="610" x2="2150" />
<use height="16" width="16" x="2142" y="144" xlink:href="#From" />
<use height="16" width="16" x="2142" y="474" xlink:href="#To" /><use height="16" width="16" x="2142" y="369" xlink:href="#To" /><use height="16" width="16" x="2142" y="594" xlink:href="#To" />




</a>

<a xlink:href="data/unmodified-dedupes/8.eml">
<line y1="535" x1="2090" y2="610" x2="2090" />
<use height="16" width="16" x="2082" y="594" xlink:href="#From" />
<use height="16" width="16" x="2082" y="519" xlink:href="#To" />




</a>

<a xlink:href="data/unmodified-dedupes/303.eml">
<line y1="490" x1="2050" y2="610" x2="2050" />
<use height="16" width="16" x="2042" y="594" xlink:href="#From" />
<use height="16" width="16" x="2042" y="474" xlink:href="#To" />




</a>


</g>
<g  id="thread"  stroke="black" ><path stroke="black" d="M 270,22 H 270 V 70 V 22   H 290 V 70 V 22   H 310 V 70 V 22 " /><path stroke="black" d="M 270,151 H 270 V 115 V 151   H 290 V 115 V 151   H 310 V 115 V 151 " /><a xlink:href="data/synthetic/Romine to Bambos 12 09pm Jan 20 2000.eml">
<line y1="70" x1="310" y2="115" x2="310" />
<use height="16" width="16" x="302" y="99" xlink:href="#From" />
<use height="16" width="16" x="302" y="54" xlink:href="#To" />




</a>

<a xlink:href="data/synthetic/Romine-to-Bambos-11am-Jan-20-2000.eml">
<line y1="70" x1="270" y2="115" x2="270" />
<use height="16" width="16" x="262" y="99" xlink:href="#From" />
<use height="16" width="16" x="262" y="54" xlink:href="#To" />




</a>

<a xlink:href="data/synthetic/Bambos to Romine 11 21am Jan20 2000.eml">
<line y1="70" x1="290" y2="115" x2="290" />
<use height="16" width="16" x="282" y="54" xlink:href="#From" />
<use height="16" width="16" x="282" y="99" xlink:href="#To" />




</a>


</g>
<g  id="thread"  stroke="darkorange" ><path stroke="darkorange" d="M 510,31 H 510 V 70 V 31   H 530 V 70 V 31   H 550 V 445 V 31   H 570 V 70 V 31 " /><path stroke="darkorange" d="M 510,685 H 510 V 595 V 685   H 530 V 610 V 685   H 550 V 610 V 685   H 570 V 640 V 685 " /><a xlink:href="data/synthetic/Bambos to Kaminski 2 31pm Feb 24 2000.eml">
<line y1="70" x1="570" y2="640" x2="570" />
<use height="16" width="16" x="562" y="54" xlink:href="#From" />
<use height="16" width="16" x="562" y="579" xlink:href="#To" />
<use height="16" width="16" x="562" y="594" xlink:href="#Cc" /><use height="16" width="16" x="562" y="624" xlink:href="#Cc" />



</a>

<a xlink:href="data/unmodified-dedupes/10361.eml">
<line y1="70" x1="530" y2="610" x2="530" />
<use height="16" width="16" x="522" y="594" xlink:href="#From" />
<use height="16" width="16" x="522" y="54" xlink:href="#To" />




</a>

<a xlink:href="data/unmodified-dedupes/10360.eml">
<line y1="445" x1="550" y2="610" x2="550" />
<use height="16" width="16" x="542" y="594" xlink:href="#From" />
<use height="16" width="16" x="542" y="534" xlink:href="#To" />
<use height="16" width="16" x="542" y="429" xlink:href="#Cc" /><use height="16" width="16" x="542" y="489" xlink:href="#Cc" />



</a>

<a xlink:href="data/synthetic/Bambos to Kaminski 12 54pm Feb 22 2000.eml">
<line y1="70" x1="510" y2="595" x2="510" />
<use height="16" width="16" x="502" y="54" xlink:href="#From" />
<use height="16" width="16" x="502" y="579" xlink:href="#To" />
<use height="16" width="16" x="502" y="429" xlink:href="#Cc" /><use height="16" width="16" x="502" y="204" xlink:href="#Cc" />



</a>


</g>
<g  id="thread"  stroke="green" ><path stroke="green" d="M 1150,31 H 1150 V 70 V 31   H 1170 V 70 V 31   H 1190 V 70 V 31   H 1230 V 70 V 31   H 1270 V 70 V 31   H 1290 V 70 V 31   H 1310 V 415 V 31   H 1330 V 70 V 31   H 1350 V 70 V 31   H 1390 V 70 V 31   H 1410 V 70 V 31   H 1430 V 70 V 31   H 1450 V 70 V 31   H 1490 V 610 V 31   H 1510 V 415 V 31   H 1530 V 70 V 31   H 1550 V 505 V 31   H 1570 V 70 V 31   H 1590 V 70 V 31   H 1610 V 70 V 31   H 1650 V 70 V 31 " /><path stroke="green" d="M 1150,679 H 1150 V 595 V 679   H 1170 V 595 V 679   H 1190 V 595 V 679   H 1230 V 610 V 679   H 1270 V 595 V 679   H 1290 V 595 V 679   H 1310 V 610 V 679   H 1330 V 610 V 679   H 1350 V 595 V 679   H 1390 V 610 V 679   H 1410 V 610 V 679   H 1430 V 640 V 679   H 1450 V 640 V 679   H 1490 V 640 V 679   H 1510 V 610 V 679   H 1530 V 505 V 679   H 1550 V 610 V 679   H 1570 V 640 V 679   H 1590 V 640 V 679   H 1610 V 640 V 679   H 1650 V 640 V 679 " /><a xlink:href="data/synthetic/Bambos to Kaminski 11 50 Sep 28 2000.eml">
<line y1="70" x1="1410" y2="610" x2="1410" />
<use height="16" width="16" x="1402" y="54" xlink:href="#From" />
<use height="16" width="16" x="1402" y="594" xlink:href="#To" />




</a>

<a xlink:href="data/synthetic/Bambos to Kaminski 18 38 Oct 16.eml">
<line y1="70" x1="1650" y2="640" x2="1650" />
<use height="16" width="16" x="1642" y="54" xlink:href="#From" />
<use height="16" width="16" x="1642" y="624" xlink:href="#To" />




</a>

<a xlink:href="data/unmodified-dedupes/1206.eml">
<line y1="70" x1="1450" y2="640" x2="1450" />
<use height="16" width="16" x="1442" y="54" xlink:href="#From" />
<use height="16" width="16" x="1442" y="579" xlink:href="#To" /><use height="16" width="16" x="1442" y="624" xlink:href="#To" /><use height="16" width="16" x="1442" y="204" xlink:href="#To" />




</a>

<a xlink:href="data/unmodified-dedupes/18.eml">
<line y1="70" x1="1230" y2="610" x2="1230" />
<use height="16" width="16" x="1222" y="489" xlink:href="#From" />
<use height="16" width="16" x="1222" y="54" xlink:href="#To" />
<use height="16" width="16" x="1222" y="474" xlink:href="#Cc" /><use height="16" width="16" x="1222" y="594" xlink:href="#Cc" />



</a>

<a xlink:href="data/unmodified-dedupes/1277.eml">
<line y1="505" x1="1550" y2="610" x2="1550" />
<use height="16" width="16" x="1542" y="489" xlink:href="#From" />
<use height="16" width="16" x="1542" y="594" xlink:href="#To" />




</a>

<a xlink:href="data/unmodified-dedupes/1385.eml">
<line y1="70" x1="1610" y2="640" x2="1610" />
<use height="16" width="16" x="1602" y="624" xlink:href="#From" />
<use height="16" width="16" x="1602" y="54" xlink:href="#To" />
<use height="16" width="16" x="1602" y="609" xlink:href="#Cc" />



</a>

<a xlink:href="data/unmodified-dedupes/1090.eml">
<line y1="70" x1="1290" y2="595" x2="1290" />
<use height="16" width="16" x="1282" y="54" xlink:href="#From" />
<use height="16" width="16" x="1282" y="489" xlink:href="#To" />
<use height="16" width="16" x="1282" y="579" xlink:href="#Cc" />



</a>

<a xlink:href="data/unmodified-dedupes/1292.eml">
<line y1="70" x1="1570" y2="640" x2="1570" />
<use height="16" width="16" x="1562" y="54" xlink:href="#From" />
<use height="16" width="16" x="1562" y="579" xlink:href="#To" /><use height="16" width="16" x="1562" y="624" xlink:href="#To" /><use height="16" width="16" x="1562" y="204" xlink:href="#To" />




</a>

<a xlink:href="data/unmodified-dedupes/1276.eml">
<line y1="415" x1="1510" y2="610" x2="1510" />
<use height="16" width="16" x="1502" y="489" xlink:href="#From" />
<use height="16" width="16" x="1502" y="399" xlink:href="#To" />
<use height="16" width="16" x="1502" y="594" xlink:href="#Cc" />



</a>

<a xlink:href="data/unmodified-dedupes/1091.eml">
<line y1="70" x1="1390" y2="610" x2="1390" />
<use height="16" width="16" x="1382" y="594" xlink:href="#From" />
<use height="16" width="16" x="1382" y="54" xlink:href="#To" />




</a>

<a xlink:href="data/unmodified-dedupes/5051.eml">
<line y1="70" x1="1170" y2="595" x2="1170" />
<use height="16" width="16" x="1162" y="489" xlink:href="#From" />
<use height="16" width="16" x="1162" y="54" xlink:href="#To" />
<use height="16" width="16" x="1162" y="579" xlink:href="#Cc" />



</a>

<a xlink:href="data/unmodified-dedupes/4200.eml">
<line y1="70" x1="1330" y2="610" x2="1330" />
<use height="16" width="16" x="1322" y="489" xlink:href="#From" />
<use height="16" width="16" x="1322" y="54" xlink:href="#To" />
<use height="16" width="16" x="1322" y="594" xlink:href="#Cc" />



</a>

<a xlink:href="data/unmodified-dedupes/4463.eml">
<line y1="70" x1="1270" y2="595" x2="1270" />
<use height="16" width="16" x="1262" y="54" xlink:href="#From" />
<use height="16" width="16" x="1262" y="489" xlink:href="#To" /><use height="16" width="16" x="1262" y="579" xlink:href="#To" />




</a>

<a xlink:href="data/synthetic/Bambos to Gibner 12 04pm Oct 9.eml">
<line y1="70" x1="1530" y2="505" x2="1530" />
<use height="16" width="16" x="1522" y="54" xlink:href="#From" />
<use height="16" width="16" x="1522" y="489" xlink:href="#To" />




</a>

<a xlink:href="data/unmodified-dedupes/4927.eml">
<line y1="70" x1="1190" y2="595" x2="1190" />
<use height="16" width="16" x="1182" y="54" xlink:href="#From" />
<use height="16" width="16" x="1182" y="489" xlink:href="#To" />
<use height="16" width="16" x="1182" y="579" xlink:href="#Cc" />



</a>

<a xlink:href="data/unmodified-dedupes/1294.eml">
<line y1="70" x1="1590" y2="640" x2="1590" />
<use height="16" width="16" x="1582" y="624" xlink:href="#From" />
<use height="16" width="16" x="1582" y="54" xlink:href="#To" />
<use height="16" width="16" x="1582" y="609" xlink:href="#Cc" />



</a>

<a xlink:href="data/unmodified-dedupes/262.eml">
<line y1="70" x1="1150" y2="595" x2="1150" />
<use height="16" width="16" x="1142" y="54" xlink:href="#From" />
<use height="16" width="16" x="1142" y="579" xlink:href="#To" /><use height="16" width="16" x="1142" y="489" xlink:href="#To" />




</a>

<a xlink:href="data/unmodified-dedupes/1260.eml">
<line y1="610" x1="1490" y2="640" x2="1490" />
<use height="16" width="16" x="1482" y="594" xlink:href="#From" />
<use height="16" width="16" x="1482" y="624" xlink:href="#To" />




</a>

<a xlink:href="data/unmodified-dedupes/1089.eml">
<line y1="415" x1="1310" y2="610" x2="1310" />
<use height="16" width="16" x="1302" y="489" xlink:href="#From" />
<use height="16" width="16" x="1302" y="399" xlink:href="#To" />
<use height="16" width="16" x="1302" y="594" xlink:href="#Cc" />



</a>

<a xlink:href="data/synthetic/Gibner to Bambos 10 30am Sep 21 2000.eml">
<line y1="70" x1="1350" y2="595" x2="1350" />
<use height="16" width="16" x="1342" y="489" xlink:href="#From" />
<use height="16" width="16" x="1342" y="54" xlink:href="#To" />
<use height="16" width="16" x="1342" y="579" xlink:href="#Cc" />



</a>

<a xlink:href="data/unmodified-dedupes/1898.eml">
<line y1="70" x1="1430" y2="640" x2="1430" />
<use height="16" width="16" x="1422" y="594" xlink:href="#From" />
<use height="16" width="16" x="1422" y="54" xlink:href="#To" />
<use height="16" width="16" x="1422" y="624" xlink:href="#Cc" />



</a>


</g>
<g  id="thread"  stroke="red" ><path stroke="red" d="M 1370,592 H 1370 V 625 V 592 " /><path stroke="red" d="M 1370,691 H 1370 V 655 V 691 " /><a xlink:href="data/unmodified-dedupes/1100.eml">
<line y1="625" x1="1370" y2="655" x2="1370" />
<use height="16" width="16" x="1362" y="639" xlink:href="#From" />
<use height="16" width="16" x="1362" y="609" xlink:href="#To" />




</a>


</g>
<g  id="thread"  stroke="violet" ><path stroke="violet" d="M 670,403 H 670 V 445 V 403   H 690 V 565 V 403 " /><path stroke="violet" d="M 670,649 H 670 V 610 V 649   H 690 V 610 V 649 " /><a xlink:href="data/unmodified-dedupes/10279.eml">
<line y1="445" x1="670" y2="610" x2="670" />
<use height="16" width="16" x="662" y="594" xlink:href="#From" />
<use height="16" width="16" x="662" y="534" xlink:href="#To" />
<use height="16" width="16" x="662" y="429" xlink:href="#Cc" /><use height="16" width="16" x="662" y="489" xlink:href="#Cc" />



</a>

<a xlink:href="data/unmodified-dedupes/10257.eml">
<line y1="565" x1="690" y2="610" x2="690" />
<use height="16" width="16" x="682" y="549" xlink:href="#From" />
<use height="16" width="16" x="682" y="594" xlink:href="#To" />




</a>


</g>
<g  id="thread"  stroke="darkorange" ><path stroke="darkorange" d="M 750,22 H 750 V 70 V 22   H 770 V 505 V 22   H 790 V 70 V 22   H 870 V 445 V 22   H 890 V 565 V 22   H 910 V 70 V 22   H 930 V 70 V 22   H 950 V 70 V 22   H 970 V 70 V 22   H 990 V 70 V 22   H 1010 V 70 V 22   H 1030 V 70 V 22   H 1050 V 505 V 22   H 1070 V 70 V 22   H 1090 V 610 V 22 " /><path stroke="darkorange" d="M 750,685 H 750 V 610 V 685   H 770 V 610 V 685   H 790 V 610 V 685   H 870 V 610 V 685   H 890 V 610 V 685   H 910 V 595 V 685   H 930 V 610 V 685   H 950 V 595 V 685   H 970 V 610 V 685   H 990 V 610 V 685   H 1010 V 610 V 685   H 1030 V 610 V 685   H 1050 V 610 V 685   H 1070 V 505 V 685   H 1090 V 640 V 685 " /><a xlink:href="data/unmodified-dedupes/4052.eml">
<line y1="445" x1="870" y2="610" x2="870" />
<use height="16" width="16" x="862" y="594" xlink:href="#From" />
<use height="16" width="16" x="862" y="534" xlink:href="#To" /><use height="16" width="16" x="862" y="489" xlink:href="#To" /><use height="16" width="16" x="862" y="429" xlink:href="#To" />




</a>

<a xlink:href="data/synthetic/Bambos to Kaminski 5 32pm Mar 12 2000.eml">
<line y1="70" x1="750" y2="610" x2="750" />
<use height="16" width="16" x="742" y="54" xlink:href="#From" />
<use height="16" width="16" x="742" y="594" xlink:href="#To" />




</a>

<a xlink:href="data/unmodified-dedupes/61b.eml">
<line y1="565" x1="890" y2="610" x2="890" />
<use height="16" width="16" x="882" y="549" xlink:href="#From" />
<use height="16" width="16" x="882" y="594" xlink:href="#To" />




</a>

<a xlink:href="data/synthetic/Bambos to Kaminski 5 31pm May 11 2000.eml">
<line y1="70" x1="1010" y2="610" x2="1010" />
<use height="16" width="16" x="1002" y="54" xlink:href="#From" />
<use height="16" width="16" x="1002" y="594" xlink:href="#To" />
<use height="16" width="16" x="1002" y="489" xlink:href="#Cc" />



</a>

<a xlink:href="data/unmodified-dedupes/4008.eml">
<line y1="70" x1="1030" y2="610" x2="1030" />
<use height="16" width="16" x="1022" y="594" xlink:href="#From" />
<use height="16" width="16" x="1022" y="54" xlink:href="#To" />
<use height="16" width="16" x="1022" y="489" xlink:href="#Cc" />



</a>

<a xlink:href="data/synthetic/Bambos to Kaminski 10 49am May 10 2000.eml">
<line y1="70" x1="950" y2="595" x2="950" />
<use height="16" width="16" x="942" y="54" xlink:href="#From" />
<use height="16" width="16" x="942" y="579" xlink:href="#To" />
<use height="16" width="16" x="942" y="489" xlink:href="#Cc" />



</a>

<a xlink:href="data/unmodified-dedupes/10063.eml">
<line y1="70" x1="790" y2="610" x2="790" />
<use height="16" width="16" x="782" y="594" xlink:href="#From" />
<use height="16" width="16" x="782" y="54" xlink:href="#To" />
<use height="16" width="16" x="782" y="489" xlink:href="#Cc" /><use height="16" width="16" x="782" y="474" xlink:href="#Cc" />



</a>

<a xlink:href="data/synthetic/Bambos to Kaminski 9 01am May 1 2000 .eml">
<line y1="70" x1="910" y2="595" x2="910" />
<use height="16" width="16" x="902" y="54" xlink:href="#From" />
<use height="16" width="16" x="902" y="579" xlink:href="#To" />




</a>

<a xlink:href="data/unmodified-dedupes/3960.eml">
<line y1="610" x1="1090" y2="640" x2="1090" />
<use height="16" width="16" x="1082" y="594" xlink:href="#From" />
<use height="16" width="16" x="1082" y="624" xlink:href="#To" />




</a>

<a xlink:href="data/unmodified-dedupes/4026.eml">
<line y1="70" x1="930" y2="610" x2="930" />
<use height="16" width="16" x="922" y="594" xlink:href="#From" />
<use height="16" width="16" x="922" y="54" xlink:href="#To" />
<use height="16" width="16" x="922" y="489" xlink:href="#Cc" />



</a>

<a xlink:href="data/unmodified-dedupes/10097.eml">
<line y1="505" x1="770" y2="610" x2="770" />
<use height="16" width="16" x="762" y="594" xlink:href="#From" />
<use height="16" width="16" x="762" y="534" xlink:href="#To" />
<use height="16" width="16" x="762" y="489" xlink:href="#Cc" />



</a>

<a xlink:href="data/synthetic/Kaminski to Bambos 1 30pm May 11 2000.eml">
<line y1="70" x1="990" y2="610" x2="990" />
<use height="16" width="16" x="982" y="594" xlink:href="#From" />
<use height="16" width="16" x="982" y="54" xlink:href="#To" />
<use height="16" width="16" x="982" y="489" xlink:href="#Cc" />



</a>

<a xlink:href="data/unmodified-dedupes/9312.eml">
<line y1="70" x1="970" y2="610" x2="970" />
<use height="16" width="16" x="962" y="594" xlink:href="#From" />
<use height="16" width="16" x="962" y="54" xlink:href="#To" />
<use height="16" width="16" x="962" y="489" xlink:href="#Cc" />



</a>

<a xlink:href="data/synthetic/Bambos to Gibner 11 33am May 19 2000.eml">
<line y1="70" x1="1070" y2="505" x2="1070" />
<use height="16" width="16" x="1062" y="54" xlink:href="#From" />
<use height="16" width="16" x="1062" y="489" xlink:href="#To" />




</a>

<a xlink:href="data/unmodified-dedupes/5638.eml">
<line y1="505" x1="1050" y2="610" x2="1050" />
<use height="16" width="16" x="1042" y="489" xlink:href="#From" />
<use height="16" width="16" x="1042" y="594" xlink:href="#To" />




</a>


</g>
<g  id="thread"  stroke="black" ><path stroke="black" d="M 1130,232 H 1130 V 265 V 232 " /><path stroke="black" d="M 1130,646 H 1130 V 610 V 646 " /><a xlink:href="data/unmodified-dedupes/240.eml">
<line y1="265" x1="1130" y2="610" x2="1130" />
<use height="16" width="16" x="1122" y="594" xlink:href="#From" />
<use height="16" width="16" x="1122" y="249" xlink:href="#To" />
<use height="16" width="16" x="1122" y="264" xlink:href="#Cc" />



</a>


</g>
<g  id="thread"  stroke="red" ><path stroke="red" d="M 1910,55 H 1910 V 100 V 55 " /><path stroke="red" d="M 1910,646 H 1910 V 610 V 646 " /><a xlink:href="data/unmodified-dedupes/1213.eml">
<line y1="100" x1="1910" y2="610" x2="1910" />
<use height="16" width="16" x="1902" y="489" xlink:href="#From" />
<use height="16" width="16" x="1902" y="474" xlink:href="#To" /><use height="16" width="16" x="1902" y="594" xlink:href="#To" />
<use height="16" width="16" x="1902" y="354" xlink:href="#Cc" /><use height="16" width="16" x="1902" y="459" xlink:href="#Cc" /><use height="16" width="16" x="1902" y="84" xlink:href="#Cc" />



</a>


</g>
<g  id="thread"  stroke="violet" ><path stroke="violet" d="M 1250,22 H 1250 V 55 V 22 " /><path stroke="violet" d="M 1250,652 H 1250 V 610 V 652 " /><a xlink:href="data/unmodified-dedupes/16.eml">
<line y1="55" x1="1250" y2="610" x2="1250" />
<use height="16" width="16" x="1242" y="39" xlink:href="#From" />
<use height="16" width="16" x="1242" y="594" xlink:href="#To" />




</a>


</g>
<g  id="thread"  stroke="darkorange" ><path stroke="darkorange" d="M 330,73 H 330 V 445 V 73   H 350 V 115 V 73   H 370 V 115 V 73   H 390 V 610 V 73 " /><path stroke="darkorange" d="M 330,679 H 330 V 610 V 679   H 350 V 610 V 679   H 370 V 610 V 679   H 390 V 640 V 679 " /><a xlink:href="data/unmodified-dedupes/10680.eml">
<line y1="610" x1="390" y2="640" x2="390" />
<use height="16" width="16" x="382" y="594" xlink:href="#From" />
<use height="16" width="16" x="382" y="624" xlink:href="#To" />




</a>

<a xlink:href="data/synthetic/Romine to Kaminski 12 16pm Jan 20 2000.eml">
<line y1="115" x1="350" y2="610" x2="350" />
<use height="16" width="16" x="342" y="99" xlink:href="#From" />
<use height="16" width="16" x="342" y="594" xlink:href="#To" />




</a>

<a xlink:href="data/unmodified-dedupes/10726.eml">
<line y1="445" x1="330" y2="610" x2="330" />
<use height="16" width="16" x="322" y="594" xlink:href="#From" />
<use height="16" width="16" x="322" y="429" xlink:href="#To" />




</a>

<a xlink:href="data/unmodified-dedupes/107.eml">
<line y1="115" x1="370" y2="610" x2="370" />
<use height="16" width="16" x="362" y="99" xlink:href="#From" />
<use height="16" width="16" x="362" y="594" xlink:href="#To" />




</a>


</g>
<g  id="thread"  stroke="blue" ><path stroke="blue" d="M 1950,490 H 1950 V 535 V 490 " /><path stroke="blue" d="M 1950,640 H 1950 V 610 V 640 " /><a xlink:href="data/synthetic/Hansen to Kaminski 4 33pm Apr 3 2001.eml">
<line y1="535" x1="1950" y2="610" x2="1950" />
<use height="16" width="16" x="1942" y="519" xlink:href="#From" />
<use height="16" width="16" x="1942" y="594" xlink:href="#To" />




</a>


</g>
<g  id="thread"  stroke="violet" ><path stroke="violet" d="M 590,37 H 590 V 70 V 37   H 610 V 70 V 37   H 630 V 70 V 37   H 650 V 610 V 37 " /><path stroke="violet" d="M 590,679 H 590 V 595 V 679   H 610 V 640 V 679   H 630 V 640 V 679   H 650 V 640 V 679 " /><a xlink:href="data/synthetic/Kaminski to Bambos 7 25am Feb 24 2000.eml">
<line y1="70" x1="610" y2="640" x2="610" />
<use height="16" width="16" x="602" y="594" xlink:href="#From" />
<use height="16" width="16" x="602" y="54" xlink:href="#To" />
<use height="16" width="16" x="602" y="624" xlink:href="#Cc" />



</a>

<a xlink:href="data/unmodified-dedupes/10323.eml">
<line y1="610" x1="650" y2="640" x2="650" />
<use height="16" width="16" x="642" y="594" xlink:href="#From" />
<use height="16" width="16" x="642" y="624" xlink:href="#To" />




</a>

<a xlink:href="data/unmodified-dedupes/10326.eml">
<line y1="70" x1="590" y2="595" x2="590" />
<use height="16" width="16" x="582" y="54" xlink:href="#From" />
<use height="16" width="16" x="582" y="579" xlink:href="#To" />




</a>

<a xlink:href="data/unmodified-dedupes/10333.eml">
<line y1="70" x1="630" y2="640" x2="630" />
<use height="16" width="16" x="622" y="594" xlink:href="#From" />
<use height="16" width="16" x="622" y="54" xlink:href="#To" />
<use height="16" width="16" x="622" y="624" xlink:href="#Cc" />



</a>


</g>
<g  id="thread"  stroke="blue" ><path stroke="blue" d="M 1930,34 H 1930 V 70 V 34 " /><path stroke="blue" d="M 1930,676 H 1930 V 640 V 676 " /><a xlink:href="data/unmodified-dedupes/1121.eml">
<line y1="70" x1="1930" y2="640" x2="1930" />
<use height="16" width="16" x="1922" y="594" xlink:href="#From" />
<use height="16" width="16" x="1922" y="54" xlink:href="#To" />
<use height="16" width="16" x="1922" y="624" xlink:href="#Cc" />



</a>


</g>
<g  id="thread"  stroke="darkorange" ><path stroke="darkorange" d="M 1750,31 H 1750 V 370 V 31   H 1770 V 70 V 31   H 1790 V 70 V 31   H 1810 V 70 V 31   H 1830 V 370 V 31   H 1850 V 370 V 31   H 1870 V 70 V 31   H 1890 V 370 V 31 " /><path stroke="darkorange" d="M 1750,646 H 1750 V 610 V 646   H 1770 V 505 V 646   H 1790 V 505 V 646   H 1810 V 505 V 646   H 1830 V 610 V 646   H 1850 V 610 V 646   H 1870 V 505 V 646   H 1890 V 610 V 646 " /><a xlink:href="data/synthetic/Bambos to Gibner 10 54 Jan 29 2001.eml">
<line y1="70" x1="1790" y2="505" x2="1790" />
<use height="16" width="16" x="1782" y="54" xlink:href="#From" />
<use height="16" width="16" x="1782" y="489" xlink:href="#To" />

<use height="16" width="16" x="1782" y="354" xlink:href="#Bcc" />


</a>

<a xlink:href="data/unmodified-dedupes/1335.eml">
<line y1="370" x1="1890" y2="610" x2="1890" />
<use height="16" width="16" x="1882" y="489" xlink:href="#From" />
<use height="16" width="16" x="1882" y="354" xlink:href="#To" /><use height="16" width="16" x="1882" y="594" xlink:href="#To" />




</a>

<a xlink:href="data/synthetic/Gibner to Bambos 9 30 Jan 29 2001.eml">
<line y1="70" x1="1770" y2="505" x2="1770" />
<use height="16" width="16" x="1762" y="489" xlink:href="#From" />
<use height="16" width="16" x="1762" y="54" xlink:href="#To" />




</a>

<a xlink:href="data/synthetic/Bambos to Gibner 11 33 Feb 9 2001.eml">
<line y1="70" x1="1810" y2="505" x2="1810" />
<use height="16" width="16" x="1802" y="54" xlink:href="#From" />
<use height="16" width="16" x="1802" y="489" xlink:href="#To" />




</a>

<a xlink:href="data/synthetic/Gibner to Bambos 4 36 Feb 13 2001.eml">
<line y1="70" x1="1870" y2="505" x2="1870" />
<use height="16" width="16" x="1862" y="489" xlink:href="#From" />
<use height="16" width="16" x="1862" y="54" xlink:href="#To" />




</a>

<a xlink:href="data/unmodified-dedupes/1552.eml">
<line y1="370" x1="1830" y2="610" x2="1830" />
<use height="16" width="16" x="1822" y="489" xlink:href="#From" />
<use height="16" width="16" x="1822" y="354" xlink:href="#To" /><use height="16" width="16" x="1822" y="594" xlink:href="#To" />




</a>

<a xlink:href="data/unmodified-dedupes/1776.eml">
<line y1="370" x1="1750" y2="610" x2="1750" />
<use height="16" width="16" x="1742" y="489" xlink:href="#From" />
<use height="16" width="16" x="1742" y="594" xlink:href="#To" />
<use height="16" width="16" x="1742" y="354" xlink:href="#Cc" />



</a>

<a xlink:href="data/unmodified-dedupes/1514.eml">
<line y1="370" x1="1850" y2="610" x2="1850" />
<use height="16" width="16" x="1842" y="489" xlink:href="#From" />
<use height="16" width="16" x="1842" y="354" xlink:href="#To" /><use height="16" width="16" x="1842" y="594" xlink:href="#To" />




</a>


</g>
<g  id="thread"  stroke="violet" ><path stroke="violet" d="M 1670,22 H 1670 V 70 V 22   H 1690 V 70 V 22   H 1710 V 70 V 22   H 1730 V 505 V 22 " /><path stroke="violet" d="M 1670,655 H 1670 V 610 V 655   H 1690 V 610 V 655   H 1710 V 505 V 655   H 1730 V 610 V 655 " /><a xlink:href="data/unmodified-dedupes/1143.eml">
<line y1="70" x1="1690" y2="610" x2="1690" />
<use height="16" width="16" x="1682" y="594" xlink:href="#From" />
<use height="16" width="16" x="1682" y="54" xlink:href="#To" />
<use height="16" width="16" x="1682" y="489" xlink:href="#Cc" />



</a>

<a xlink:href="data/synthetic/Stinson to Bambos 17 04 Dec 27.eml">
<line y1="70" x1="1710" y2="505" x2="1710" />
<use height="16" width="16" x="1702" y="489" xlink:href="#From" />
<use height="16" width="16" x="1702" y="54" xlink:href="#To" />




</a>

<a xlink:href="data/synthetic/Bambos Christmas message 2000.eml">
<line y1="70" x1="1670" y2="610" x2="1670" />
<use height="16" width="16" x="1662" y="54" xlink:href="#From" />
<use height="16" width="16" x="1662" y="594" xlink:href="#To" />
<use height="16" width="16" x="1662" y="489" xlink:href="#Cc" />



</a>

<a xlink:href="data/unmodified-dedupes/2361.eml">
<line y1="505" x1="1730" y2="610" x2="1730" />
<use height="16" width="16" x="1722" y="489" xlink:href="#From" />
<use height="16" width="16" x="1722" y="594" xlink:href="#To" />




</a>


</g>
<g  id="thread"  stroke="purple" ><path stroke="purple" d="M 710,28 H 710 V 70 V 28   H 730 V 70 V 28 " /><path stroke="purple" d="M 710,682 H 710 V 640 V 682   H 730 V 640 V 682 " /><a xlink:href="data/unmodified-dedupes/102.eml">
<line y1="70" x1="710" y2="640" x2="710" />
<use height="16" width="16" x="702" y="594" xlink:href="#From" />
<use height="16" width="16" x="702" y="54" xlink:href="#To" />
<use height="16" width="16" x="702" y="339" xlink:href="#Cc" /><use height="16" width="16" x="702" y="624" xlink:href="#Cc" />



</a>

<a xlink:href="data/synthetic/Bambos to Kaminski 12 32pm Mar 1 2000.eml">
<line y1="70" x1="730" y2="640" x2="730" />
<use height="16" width="16" x="722" y="54" xlink:href="#From" />
<use height="16" width="16" x="722" y="579" xlink:href="#To" />
<use height="16" width="16" x="722" y="624" xlink:href="#Cc" /><use height="16" width="16" x="722" y="309" xlink:href="#Cc" />



</a>


</g>
<g  id="thread"  stroke="darkorange" ><path stroke="darkorange" d="M 810,31 H 810 V 70 V 31   H 830 V 70 V 31   H 850 V 70 V 31 " /><path stroke="darkorange" d="M 810,646 H 810 V 610 V 646   H 830 V 490 V 646   H 850 V 595 V 646 " /><a xlink:href="data/synthetic/Bambos to Crenshaw 12 28pm Mar 16 2000.eml">
<line y1="70" x1="830" y2="490" x2="830" />
<use height="16" width="16" x="822" y="54" xlink:href="#From" />
<use height="16" width="16" x="822" y="474" xlink:href="#To" />




</a>

<a xlink:href="data/unmodified-dedupes/10043.eml">
<line y1="70" x1="850" y2="595" x2="850" />
<use height="16" width="16" x="842" y="54" xlink:href="#From" />
<use height="16" width="16" x="842" y="474" xlink:href="#To" />
<use height="16" width="16" x="842" y="579" xlink:href="#Cc" /><use height="16" width="16" x="842" y="489" xlink:href="#Cc" /><use height="16" width="16" x="842" y="564" xlink:href="#Cc" /><use height="16" width="16" x="842" y="69" xlink:href="#Cc" />



</a>

<a xlink:href="data/unmodified-dedupes/10055.eml">
<line y1="70" x1="810" y2="610" x2="810" />
<use height="16" width="16" x="802" y="474" xlink:href="#From" />
<use height="16" width="16" x="802" y="54" xlink:href="#To" />
<use height="16" width="16" x="802" y="594" xlink:href="#Cc" /><use height="16" width="16" x="802" y="489" xlink:href="#Cc" /><use height="16" width="16" x="802" y="549" xlink:href="#Cc" />



</a>


</g>
<g  id="thread"  stroke="darkorange" ><path stroke="darkorange" d="M 1110,85 H 1110 V 130 V 85 " /><path stroke="darkorange" d="M 1110,640 H 1110 V 610 V 640 " /><a xlink:href="data/unmodified-dedupes/5686.eml">
<line y1="130" x1="1110" y2="610" x2="1110" />
<use height="16" width="16" x="1102" y="474" xlink:href="#From" />
<use height="16" width="16" x="1102" y="114" xlink:href="#To" /><use height="16" width="16" x="1102" y="324" xlink:href="#To" /><use height="16" width="16" x="1102" y="504" xlink:href="#To" /><use height="16" width="16" x="1102" y="189" xlink:href="#To" /><use height="16" width="16" x="1102" y="294" xlink:href="#To" /><use height="16" width="16" x="1102" y="384" xlink:href="#To" />
<use height="16" width="16" x="1102" y="594" xlink:href="#Cc" /><use height="16" width="16" x="1102" y="489" xlink:href="#Cc" /><use height="16" width="16" x="1102" y="444" xlink:href="#Cc" /><use height="16" width="16" x="1102" y="129" xlink:href="#Cc" /><use height="16" width="16" x="1102" y="414" xlink:href="#Cc" />



</a>


</g>

</g>
</svg>

 