<?xml version="1.0" encoding="UTF-8" standalone="no"?>
<svg
   xmlns:dc="http://purl.org/dc/elements/1.1/"
   xmlns:cc="http://creativecommons.org/ns#"
   xmlns:rdf="http://www.w3.org/1999/02/22-rdf-syntax-ns#"
   xmlns:svg="http://www.w3.org/2000/svg"
   xmlns="http://www.w3.org/2000/svg"
   xmlns:xlink="http://www.w3.org/1999/xlink"

   

   width="1640" height="1200" id="svg2" ><defs id="defs1">
    <style type="text/css"><![CDATA[
   #messages path {stroke-linecap:round; stroke-linejoin:round; stroke:dimgray; stroke-width: 4px;  marker-start:url(#circle-sender); marker-mid:url(#to-square); marker-end:url(#to-square); } //
   #threads path {stroke:black; stroke-width: 1px; } // stroke-dasharray: 5px, 7px; }
   defs path { marker-mid:none; marker-end:none; }
    ]]></style>
     
    <symbol id="circle" >
      <circle cx="8" cy="8" r="5" stroke="navy" fill="black" stroke-width="2"  />
    </symbol>

    <symbol id="sq" >
      <rect x="0" y="0" width="16" height="16" stroke="navy" fill="white" stroke-width="2"  />
    </symbol>

    <marker id="to-square" viewBox="0 0 16 16" refX="8" refY="8" markerUnits="userSpaceOnUse" markerWidth="16" markerHeight="16" orient="0">
      <use x="0" y="0" xlink:href="#sq" />
    </marker>


    <marker id="Square"  viewBox="0 0 16 16" refX="8" refY="8" markerUnits="userSpaceOnUse" markerWidth="16" markerHeight="16" orient="0">
        <rect x="0" y="0" width="16" height="16" stroke="navy" fill="white" stroke-width="1"  />
    </marker>

    <symbol id="circle"  viewBox="0 0 16 16" refX="8" refY="8" markerUnits="userSpaceOnUse" markerWidth="16" markerHeight="16" orient="0">
      <circle cx="5" cy="5" r="3" stroke="navy" fill="black" stroke-width="2"  />
    </symbol>

    <marker id="circle-sender"  viewBox="0 0 16 16" refX="8" refY="8" markerUnits="userSpaceOnUse" markerWidth="16" markerHeight="16" orient="0">
        <use x="0" y="0" xlink:href="#circle" />
    </marker>

<!--
     <marker id="sender"  viewBox="0 0 10 10" refX="5" refY="5" 
      markerUnits="strokeWidth"
      markerWidth="5" markerHeight="5"
      orient="90deg">
      <circle cx="5" cy="5" r="3"
        stroke="navy" fill="black" stroke-width="2"  />
    </marker> -->

     <marker id="Triangle"  viewBox="0 0 10 10" refX="10" refY="5" 
      markerUnits="strokeWidth"
      markerWidth="5" markerHeight="5"
      orient="auto">
      <path d="M 0 0 L 10 5 L 0 10 z" />
    </marker>



    <marker id="sender-square"  viewBox="0 0 10 10" refX="5" refY="5" 
      markerUnits="strokeWidth"   
      markerWidth="5" markerHeight="5" 
      orient="90deg">
        <rect x="0" y="0" width="10" height="10"
     stroke="navy" fill="black" stroke-width="2"  />
    </marker>

</defs>

  <metadata
     id="metadata7">
    <rdf:RDF>
      <cc:Work
         rdf:about="">
        <dc:format>image/svg+xml</dc:format>
        <dc:type
           rdf:resource="http://purl.org/dc/dcmitype/StillImage" />
      </cc:Work>
    </rdf:RDF>
  </metadata>
<!-- (c)2008 S.De Gabrielle  --><g  id="threads" stroke-width="2px"  fill="none"  ><path stroke="green" d="M 1430,64 H 1430 V 100 V 64   H 1450 V 190 V 64   H 1470 V 190 V 64   H 1490 V 550 V 64   H 1510 V 505 V 64   H 1530 V 550 V 64   H 1550 V 190 V 64   H 1570 V 190 V 64 " /><path stroke="green" d="M 1430,655 H 1430 V 610 V 655   H 1450 V 625 V 655   H 1470 V 625 V 655   H 1490 V 625 V 655   H 1510 V 625 V 655   H 1530 V 625 V 655   H 1550 V 625 V 655   H 1570 V 625 V 655 " /><path stroke="red" d="M 1310,349 H 1310 V 385 V 349   H 1330 V 385 V 349   H 1350 V 385 V 349   H 1370 V 385 V 349 " /><path stroke="red" d="M 1310,667 H 1310 V 625 V 667   H 1330 V 625 V 667   H 1350 V 625 V 667   H 1370 V 625 V 667 " /><path stroke="violet" d="M 1270,58 H 1270 V 100 V 58   H 1290 V 520 V 58 " /><path stroke="violet" d="M 1270,664 H 1270 V 625 V 664   H 1290 V 625 V 664 " /><path stroke="black" d="M 830,70 H 830 V 100 V 70   H 850 V 100 V 70   H 870 V 100 V 70   H 910 V 100 V 70   H 950 V 100 V 70   H 970 V 430 V 70   H 990 V 100 V 70   H 1010 V 100 V 70   H 1050 V 100 V 70   H 1070 V 100 V 70   H 1090 V 100 V 70   H 1130 V 625 V 70   H 1150 V 430 V 70   H 1170 V 520 V 70   H 1190 V 100 V 70   H 1210 V 100 V 70   H 1250 V 100 V 70 " /><path stroke="black" d="M 830,700 H 830 V 610 V 700   H 850 V 610 V 700   H 870 V 610 V 700   H 910 V 625 V 700   H 950 V 610 V 700   H 970 V 625 V 700   H 990 V 625 V 700   H 1010 V 610 V 700   H 1050 V 625 V 700   H 1070 V 655 V 700   H 1090 V 655 V 700   H 1130 V 655 V 700   H 1150 V 625 V 700   H 1170 V 625 V 700   H 1190 V 655 V 700   H 1210 V 655 V 700   H 1250 V 655 V 700 " /><path stroke="black" d="M 1110,607 H 1110 V 640 V 607   H 1230 V 640 V 607 " /><path stroke="black" d="M 1110,700 H 1110 V 655 V 700   H 1230 V 655 V 700 " /><path stroke="black" d="M 570,58 H 570 V 520 V 58   H 590 V 100 V 58   H 650 V 460 V 58   H 670 V 580 V 58   H 690 V 100 V 58   H 710 V 100 V 58   H 730 V 100 V 58   H 750 V 520 V 58   H 770 V 625 V 58 " /><path stroke="black" d="M 570,688 H 570 V 625 V 688   H 590 V 625 V 688   H 650 V 625 V 688   H 670 V 625 V 688   H 690 V 625 V 688   H 710 V 625 V 688   H 730 V 625 V 688   H 750 V 625 V 688   H 770 V 655 V 688 " /><path stroke="purple" d="M 610,52 H 610 V 100 V 52   H 630 V 100 V 52 " /><path stroke="purple" d="M 610,655 H 610 V 610 V 655   H 630 V 625 V 655 " /><path stroke="gold" d="M 510,421 H 510 V 460 V 421   H 530 V 580 V 421 " /><path stroke="gold" d="M 510,673 H 510 V 625 V 673   H 530 V 625 V 673 " /><path stroke="black" d="M 450,70 H 450 V 625 V 70   H 470 V 100 V 70   H 490 V 100 V 70 " /><path stroke="black" d="M 450,691 H 450 V 655 V 691   H 470 V 610 V 691   H 490 V 655 V 691 " /><path stroke="red" d="M 410,64 H 410 V 100 V 64   H 430 V 460 V 64 " /><path stroke="red" d="M 410,655 H 410 V 625 V 655   H 430 V 625 V 655 " /><path stroke="gold" d="M 330,214 H 330 V 250 V 214   H 350 V 250 V 214   H 370 V 580 V 214 " /><path stroke="gold" d="M 330,673 H 330 V 625 V 673   H 350 V 625 V 673   H 370 V 625 V 673 " /><path stroke="green" d="M 270,112 H 270 V 460 V 112   H 290 V 145 V 112   H 310 V 625 V 112 " /><path stroke="green" d="M 270,694 H 270 V 625 V 694   H 290 V 625 V 694   H 310 V 655 V 694 " />
</g>
<text id="t1" stroke="none" x="20" xml:space="preserve" y="85"><tspan dx="10" dy="-5" id="ts1" font-family="sans-serif" font-size="70%">anita.dupont@enron.com</tspan></text><line stroke="black" stroke-width="0.5" x1="20" y1="85" x2="2500" y2="85" /><text id="t1" stroke="none" x="20" xml:space="preserve" y="100"><tspan dx="10" dy="-5" id="ts1" font-family="sans-serif" font-size="70%">bambos@stanford.edu</tspan></text><line stroke="black" stroke-width="0.5" x1="20" y1="100" x2="2500" y2="100" /><text id="t1" stroke="none" x="20" xml:space="preserve" y="115"><tspan dx="10" dy="-5" id="ts1" font-family="sans-serif" font-size="70%">bambos@stanford.stanford.edu</tspan></text><line stroke="black" stroke-width="0.5" x1="20" y1="115" x2="2500" y2="115" /><text id="t1" stroke="none" x="20" xml:space="preserve" y="130"><tspan dx="10" dy="-5" id="ts1" font-family="sans-serif" font-size="70%">brad.romine@enron.com</tspan></text><line stroke="black" stroke-width="0.5" x1="20" y1="130" x2="2500" y2="130" /><text id="t1" stroke="none" x="20" xml:space="preserve" y="145"><tspan dx="10" dy="-5" id="ts1" font-family="sans-serif" font-size="70%">bradley@stanford.edu</tspan></text><line stroke="black" stroke-width="0.5" x1="20" y1="145" x2="2500" y2="145" /><text id="t1" stroke="none" x="20" xml:space="preserve" y="160"><tspan dx="10" dy="-5" id="ts1" font-family="sans-serif" font-size="70%">carol.brown@enron.com</tspan></text><line stroke="black" stroke-width="0.5" x1="20" y1="160" x2="2500" y2="160" /><text id="t1" stroke="none" x="20" xml:space="preserve" y="175"><tspan dx="10" dy="-5" id="ts1" font-family="sans-serif" font-size="70%">chonawee.supatgiat@enron.com</tspan></text><line stroke="black" stroke-width="0.5" x1="20" y1="175" x2="2500" y2="175" /><text id="t1" stroke="none" x="20" xml:space="preserve" y="190"><tspan dx="10" dy="-5" id="ts1" font-family="sans-serif" font-size="70%">christie.patrick@enron.com</tspan></text><line stroke="black" stroke-width="0.5" x1="20" y1="190" x2="2500" y2="190" /><text id="t1" stroke="none" x="20" xml:space="preserve" y="205"><tspan dx="10" dy="-5" id="ts1" font-family="sans-serif" font-size="70%">clovell@stanford.edu</tspan></text><line stroke="black" stroke-width="0.5" x1="20" y1="205" x2="2500" y2="205" /><text id="t1" stroke="none" x="20" xml:space="preserve" y="220"><tspan dx="10" dy="-5" id="ts1" font-family="sans-serif" font-size="70%">donna.lawrence@stanford.edu</tspan></text><line stroke="black" stroke-width="0.5" x1="20" y1="220" x2="2500" y2="220" /><text id="t1" stroke="none" x="20" xml:space="preserve" y="235"><tspan dx="10" dy="-5" id="ts1" font-family="sans-serif" font-size="70%">dorothy.dalton@enron.com</tspan></text><line stroke="black" stroke-width="0.5" x1="20" y1="235" x2="2500" y2="235" /><text id="t1" stroke="none" x="20" xml:space="preserve" y="250"><tspan dx="10" dy="-5" id="ts1" font-family="sans-serif" font-size="70%">gappy@stanford.edu</tspan></text><line stroke="black" stroke-width="0.5" x1="20" y1="250" x2="2500" y2="250" /><text id="t1" stroke="none" x="20" xml:space="preserve" y="265"><tspan dx="10" dy="-5" id="ts1" font-family="sans-serif" font-size="70%">hillh@stanford.edu</tspan></text><line stroke="black" stroke-width="0.5" x1="20" y1="265" x2="2500" y2="265" /><text id="t1" stroke="none" x="20" xml:space="preserve" y="280"><tspan dx="10" dy="-5" id="ts1" font-family="sans-serif" font-size="70%">j.kaminski@enron.com</tspan></text><line stroke="black" stroke-width="0.5" x1="20" y1="280" x2="2500" y2="280" /><text id="t1" stroke="none" x="20" xml:space="preserve" y="295"><tspan dx="10" dy="-5" id="ts1" font-family="sans-serif" font-size="70%">jeff.skilling@enron.com</tspan></text><line stroke="black" stroke-width="0.5" x1="20" y1="295" x2="2500" y2="295" /><text id="t1" stroke="none" x="20" xml:space="preserve" y="310"><tspan dx="10" dy="-5" id="ts1" font-family="sans-serif" font-size="70%">jeffrey.shankman@enron.com</tspan></text><line stroke="black" stroke-width="0.5" x1="20" y1="310" x2="2500" y2="310" /><text id="t1" stroke="none" x="20" xml:space="preserve" y="325"><tspan dx="10" dy="-5" id="ts1" font-family="sans-serif" font-size="70%">jo.olsovsky@enron.com</tspan></text><line stroke="black" stroke-width="0.5" x1="20" y1="325" x2="2500" y2="325" /><text id="t1" stroke="none" x="20" xml:space="preserve" y="340"><tspan dx="10" dy="-5" id="ts1" font-family="sans-serif" font-size="70%">kayla.crenshaw@enron.com</tspan></text><line stroke="black" stroke-width="0.5" x1="20" y1="340" x2="2500" y2="340" /><text id="t1" stroke="none" x="20" xml:space="preserve" y="355"><tspan dx="10" dy="-5" id="ts1" font-family="sans-serif" font-size="70%">lucy.marshall@enron.com</tspan></text><line stroke="black" stroke-width="0.5" x1="20" y1="355" x2="2500" y2="355" /><text id="t1" stroke="none" x="20" xml:space="preserve" y="370"><tspan dx="10" dy="-5" id="ts1" font-family="sans-serif" font-size="70%">ludkam@aol.com</tspan></text><line stroke="black" stroke-width="0.5" x1="20" y1="370" x2="2500" y2="370" /><text id="t1" stroke="none" x="20" xml:space="preserve" y="385"><tspan dx="10" dy="-5" id="ts1" font-family="sans-serif" font-size="70%">martin.lin@enron.com</tspan></text><line stroke="black" stroke-width="0.5" x1="20" y1="385" x2="2500" y2="385" /><text id="t1" stroke="none" x="20" xml:space="preserve" y="400"><tspan dx="10" dy="-5" id="ts1" font-family="sans-serif" font-size="70%">melinda.mccarty@enron.com</tspan></text><line stroke="black" stroke-width="0.5" x1="20" y1="400" x2="2500" y2="400" /><text id="t1" stroke="none" x="20" xml:space="preserve" y="415"><tspan dx="10" dy="-5" id="ts1" font-family="sans-serif" font-size="70%">melissa.jones@enron.com</tspan></text><line stroke="black" stroke-width="0.5" x1="20" y1="415" x2="2500" y2="415" /><text id="t1" stroke="none" x="20" xml:space="preserve" y="430"><tspan dx="10" dy="-5" id="ts1" font-family="sans-serif" font-size="70%">paul.racicot@enron.com</tspan></text><line stroke="black" stroke-width="0.5" x1="20" y1="430" x2="2500" y2="430" /><text id="t1" stroke="none" x="20" xml:space="preserve" y="445"><tspan dx="10" dy="-5" id="ts1" font-family="sans-serif" font-size="70%">pinnamaneni.krishnarao@enron.com</tspan></text><line stroke="black" stroke-width="0.5" x1="20" y1="445" x2="2500" y2="445" /><text id="t1" stroke="none" x="20" xml:space="preserve" y="460"><tspan dx="10" dy="-5" id="ts1" font-family="sans-serif" font-size="70%">ravi.thuraisingham@enron.com</tspan></text><line stroke="black" stroke-width="0.5" x1="20" y1="460" x2="2500" y2="460" /><text id="t1" stroke="none" x="20" xml:space="preserve" y="475"><tspan dx="10" dy="-5" id="ts1" font-family="sans-serif" font-size="70%">samer.takriti@enron.com</tspan></text><line stroke="black" stroke-width="0.5" x1="20" y1="475" x2="2500" y2="475" /><text id="t1" stroke="none" x="20" xml:space="preserve" y="490"><tspan dx="10" dy="-5" id="ts1" font-family="sans-serif" font-size="70%">shalesh.ganjoo@enron.com</tspan></text><line stroke="black" stroke-width="0.5" x1="20" y1="490" x2="2500" y2="490" /><text id="t1" stroke="none" x="20" xml:space="preserve" y="505"><tspan dx="10" dy="-5" id="ts1" font-family="sans-serif" font-size="70%">shirley.crenshaw@enron.com</tspan></text><line stroke="black" stroke-width="0.5" x1="20" y1="505" x2="2500" y2="505" /><text id="t1" stroke="none" x="20" xml:space="preserve" y="520"><tspan dx="10" dy="-5" id="ts1" font-family="sans-serif" font-size="70%">stinson.gibner@enron.com</tspan></text><line stroke="black" stroke-width="0.5" x1="20" y1="520" x2="2500" y2="520" /><text id="t1" stroke="none" x="20" xml:space="preserve" y="535"><tspan dx="10" dy="-5" id="ts1" font-family="sans-serif" font-size="70%">sue.wadsworth@enron.com</tspan></text><line stroke="black" stroke-width="0.5" x1="20" y1="535" x2="2500" y2="535" /><text id="t1" stroke="none" x="20" xml:space="preserve" y="550"><tspan dx="10" dy="-5" id="ts1" font-family="sans-serif" font-size="70%">susan.hansen@stanford.edu</tspan></text><line stroke="black" stroke-width="0.5" x1="20" y1="550" x2="2500" y2="550" /><text id="t1" stroke="none" x="20" xml:space="preserve" y="565"><tspan dx="10" dy="-5" id="ts1" font-family="sans-serif" font-size="70%">thomas.gros@enron.com</tspan></text><line stroke="black" stroke-width="0.5" x1="20" y1="565" x2="2500" y2="565" /><text id="t1" stroke="none" x="20" xml:space="preserve" y="580"><tspan dx="10" dy="-5" id="ts1" font-family="sans-serif" font-size="70%">tom.gros@enron.com</tspan></text><line stroke="black" stroke-width="0.5" x1="20" y1="580" x2="2500" y2="580" /><text id="t1" stroke="none" x="20" xml:space="preserve" y="595"><tspan dx="10" dy="-5" id="ts1" font-family="sans-serif" font-size="70%">tom.gros@enroncommunications.enron.net</tspan></text><line stroke="black" stroke-width="0.5" x1="20" y1="595" x2="2500" y2="595" /><text id="t1" stroke="none" x="20" xml:space="preserve" y="610"><tspan dx="10" dy="-5" id="ts1" font-family="sans-serif" font-size="70%">vince.j.kaminski@enron.com</tspan></text><line stroke="black" stroke-width="0.5" x1="20" y1="610" x2="2500" y2="610" /><text id="t1" stroke="none" x="20" xml:space="preserve" y="625"><tspan dx="10" dy="-5" id="ts1" font-family="sans-serif" font-size="70%">vince.kaminski@enron.com</tspan></text><line stroke="black" stroke-width="0.5" x1="20" y1="625" x2="2500" y2="625" /><text id="t1" stroke="none" x="20" xml:space="preserve" y="640"><tspan dx="10" dy="-5" id="ts1" font-family="sans-serif" font-size="70%">vkamins@enron.com</tspan></text><line stroke="black" stroke-width="0.5" x1="20" y1="640" x2="2500" y2="640" /><text id="t1" stroke="none" x="20" xml:space="preserve" y="655"><tspan dx="10" dy="-5" id="ts1" font-family="sans-serif" font-size="70%">vkaminski@aol.com</tspan></text><line stroke="black" stroke-width="0.5" x1="20" y1="655" x2="2500" y2="655" /><text id="t1" stroke="none" x="20" xml:space="preserve" y="670"><tspan dx="10" dy="-5" id="ts1" font-family="sans-serif" font-size="70%">vkaminski@palm.net</tspan></text><line stroke="black" stroke-width="0.5" x1="20" y1="670" x2="2500" y2="670" /><!-- vertical email lines with links --><g id="messages" stroke="black"><a xlink:href="bambos/10726.eml"><path d="M 270,625 V 460" stroke="black" /></a><a xlink:href="bambos/107.eml"><path d="M 290,145 V 625" stroke="black" /></a><a xlink:href="bambos/10680.eml"><path d="M 310,625 V 655" stroke="black" /></a><a xlink:href="bambos/10493.eml"><path d="M 330,250 V 625" stroke="black" /></a><a xlink:href="bambos/10416.eml"><path d="M 350,625 V 250 V 460 V 625" stroke="black" /></a><a xlink:href="bambos/10408.eml"><path d="M 370,625 V 580" stroke="black" /></a><a xlink:href="bambos/10421.eml"><path d="M 390,460 V 520 V 625" stroke="black" /></a><a xlink:href="bambos/10361.eml"><path d="M 410,625 V 100 V 625" stroke="black" /></a><a xlink:href="bambos/10360.eml"><path d="M 430,625 V 460 V 520 V 565" stroke="black" /></a><a xlink:href="bambos/10323.eml"><path d="M 450,625 V 655" stroke="black" /></a><a xlink:href="bambos/10326.eml"><path d="M 470,100 V 610" stroke="black" /></a><a xlink:href="bambos/10333.eml"><path d="M 490,625 V 100 V 625 V 655" stroke="black" /></a><a xlink:href="bambos/10279.eml"><path d="M 510,625 V 460 V 520 V 565 V 625" stroke="black" /></a><a xlink:href="bambos/10257.eml"><path d="M 530,580 V 625" stroke="black" /></a><a xlink:href="bambos/102.eml"><path d="M 550,625 V 100 V 370 V 625 V 655" stroke="black" /></a><a xlink:href="bambos/10097.eml"><path d="M 570,625 V 520 V 565 V 625" stroke="black" /></a><a xlink:href="bambos/10063.eml"><path d="M 590,625 V 100 V 505 V 520 V 625" stroke="black" /></a><a xlink:href="bambos/10043.eml"><path d="M 610,100 V 115 V 505 V 520 V 595 V 610" stroke="black" /></a><a xlink:href="bambos/10055.eml"><path d="M 630,505 V 100 V 520 V 580 V 625" stroke="black" /></a><a xlink:href="bambos/4052.eml"><path d="M 650,625 V 460 V 520 V 565 V 625" stroke="black" /></a><a xlink:href="bambos/61b.eml"><path d="M 670,580 V 625" stroke="black" /></a><a xlink:href="bambos/4026.eml"><path d="M 690,625 V 100 V 520 V 625" stroke="black" /></a><a xlink:href="bambos/9312.eml"><path d="M 710,625 V 100 V 520 V 625" stroke="black" /></a><a xlink:href="bambos/4008.eml"><path d="M 730,625 V 100 V 520 V 625" stroke="black" /></a><a xlink:href="bambos/5638.eml"><path d="M 750,520 V 625" stroke="black" /></a><a xlink:href="bambos/3960.eml"><path d="M 770,625 V 655" stroke="black" /></a><a xlink:href="bambos/5686.eml"><path d="M 790,505 V 160 V 175 V 235 V 340 V 355 V 415 V 445 V 475 V 520 V 535 V 625" stroke="black" /></a><a xlink:href="bambos/240.eml"><path d="M 810,625 V 295 V 310 V 625" stroke="black" /></a><a xlink:href="bambos/262.eml"><path d="M 830,100 V 520 V 610" stroke="black" /></a><a xlink:href="bambos/5051.eml"><path d="M 850,520 V 100 V 610" stroke="black" /></a><a xlink:href="bambos/4927.eml"><path d="M 870,100 V 520 V 610" stroke="black" /></a><a xlink:href="bambos/19.eml"><path d="M 890,505 V 325 V 355 V 520 V 625" stroke="black" /></a><a xlink:href="bambos/18.eml"><path d="M 910,520 V 100 V 505 V 625" stroke="black" /></a><a xlink:href="bambos/16.eml"><path d="M 930,85 V 625" stroke="black" /></a><a xlink:href="bambos/4463.eml"><path d="M 950,100 V 520 V 610" stroke="black" /></a><a xlink:href="bambos/1089.eml"><path d="M 970,520 V 430 V 625" stroke="black" /></a><a xlink:href="bambos/4200.eml"><path d="M 990,520 V 100 V 625" stroke="black" /></a><a xlink:href="bambos/1090.eml"><path d="M 1010,100 V 520 V 610" stroke="black" /></a><a xlink:href="bambos/1100.eml"><path d="M 1030,670 V 640" stroke="black" /></a><a xlink:href="bambos/1091.eml"><path d="M 1050,625 V 100 V 625" stroke="black" /></a><a xlink:href="bambos/1898.eml"><path d="M 1070,625 V 100 V 625 V 655" stroke="black" /></a><a xlink:href="bambos/1206.eml"><path d="M 1090,100 V 250 V 610 V 655" stroke="black" /></a><a xlink:href="bambos/1214.eml"><path d="M 1110,655 V 640 V 655" stroke="black" /></a><a xlink:href="bambos/1260.eml"><path d="M 1130,625 V 655" stroke="black" /></a><a xlink:href="bambos/1276.eml"><path d="M 1150,520 V 430 V 625" stroke="black" /></a><a xlink:href="bambos/1277.eml"><path d="M 1170,520 V 625" stroke="black" /></a><a xlink:href="bambos/1292.eml"><path d="M 1190,100 V 250 V 610 V 655" stroke="black" /></a><a xlink:href="bambos/1294.eml"><path d="M 1210,655 V 100 V 640" stroke="black" /></a><a xlink:href="bambos/1384.eml"><path d="M 1230,655 V 640" stroke="black" /></a><a xlink:href="bambos/1385.eml"><path d="M 1250,655 V 100 V 640" stroke="black" /></a><a xlink:href="bambos/1143.eml"><path d="M 1270,625 V 100 V 520 V 625" stroke="black" /></a><a xlink:href="bambos/2361.eml"><path d="M 1290,520 V 625" stroke="black" /></a><a xlink:href="bambos/1776.eml"><path d="M 1310,520 V 385 V 625" stroke="black" /></a><a xlink:href="bambos/1552.eml"><path d="M 1330,520 V 385 V 625" stroke="black" /></a><a xlink:href="bambos/1514.eml"><path d="M 1350,520 V 385 V 625" stroke="black" /></a><a xlink:href="bambos/1335.eml"><path d="M 1370,520 V 385 V 625" stroke="black" /></a><a xlink:href="bambos/1213.eml"><path d="M 1390,520 V 130 V 385 V 490 V 505 V 625" stroke="black" /></a><a xlink:href="bambos/1121.eml"><path d="M 1410,625 V 100 V 625 V 655" stroke="black" /></a><a xlink:href="bambos/28.eml"><path d="M 1430,550 V 100 V 205 V 220 V 265 V 610" stroke="black" /></a><a xlink:href="bambos/6.eml"><path d="M 1450,190 V 400 V 505 V 625" stroke="black" /></a><a xlink:href="bambos/7.eml"><path d="M 1470,625 V 190 V 625" stroke="black" /></a><a xlink:href="bambos/26.eml"><path d="M 1490,625 V 550 V 625" stroke="black" /></a><a xlink:href="bambos/303.eml"><path d="M 1510,625 V 505" stroke="black" /></a><a xlink:href="bambos/8.eml"><path d="M 1530,625 V 550 V 625" stroke="black" /></a><a xlink:href="bambos/25.eml"><path d="M 1550,625 V 190 V 625" stroke="black" /></a><a xlink:href="bambos/24.eml"><path d="M 1570,190 V 400 V 505 V 625" stroke="black" /></a><a xlink:href="bambos/397.eml"><path d="M 1590,100 V 100 V 280" stroke="black" /></a></g>
</svg>

 