<?xml version="1.0" encoding="UTF-8" standalone="no"?>
<svg
   xmlns:dc="http://purl.org/dc/elements/1.1/"
   xmlns:cc="http://creativecommons.org/ns#"
   xmlns:rdf="http://www.w3.org/1999/02/22-rdf-syntax-ns#"
   xmlns:svg="http://www.w3.org/2000/svg"
   xmlns="http://www.w3.org/2000/svg"
   xmlns:xlink="http://www.w3.org/1999/xlink"
   width="2600"
   height="1200"
   id="svg2" >
  <defs
     id="defs1">
    <style type="text/css"><![CDATA[

   #messages path {stroke-width:2; stroke:black; stroke-width: 6px;  marker-start:url(#circle); marker-mid:url(#Square); marker-end:url(#Square); } //
   #threads path {stroke:black; stroke-width: 1px; } // stroke-dasharray: 5px, 7px; }
   defs path { marker-mid:none; marker-end:none; }

    ]]></style>
     
     <marker id="Triangle"  viewBox="0 0 10 10" refX="10" refY="5" 
      markerUnits="strokeWidth"
      markerWidth="5" markerHeight="5"
      orient="auto">
      <path d="M 0 0 L 10 5 L 0 10 z" />
    </marker>


    <symbol id="circle"  viewBox="0 0 10 10" refX="5" refY="5" 
      markerUnits="strokeWidth"
      markerWidth="5" markerHeight="5"
      orient="auto">
      <circle cx="5" cy="5" r="3"
        stroke="navy" fill="black" stroke-width="2"  />
    </symbol>

     <marker id="sender"  viewBox="0 0 10 10" refX="5" refY="5" 
      markerUnits="strokeWidth"
      markerWidth="5" markerHeight="5"
      orient="90deg">
        <use x="0" y="0" xlink:href="#circle" />
    </marker>
<!--
     <marker id="sender"  viewBox="0 0 10 10" refX="5" refY="5" 
      markerUnits="strokeWidth"
      markerWidth="5" markerHeight="5"
      orient="90deg">
      <circle cx="5" cy="5" r="3"
        stroke="navy" fill="black" stroke-width="2"  />
    </marker> -->

    <marker id="Square"  viewBox="0 0 4 4" refX="5" refY="5" 
      markerUnits="strokeWidth"   
      markerWidth="5" markerHeight="5" 
      orient="90deg">
        <rect x="2" y="2" width="8" height="8"
     stroke="navy" fill="white" stroke-width="0.5"  />
    </marker>

    <marker id="sender-square"  viewBox="0 0 10 10" refX="5" refY="5" 
      markerUnits="strokeWidth"   
      markerWidth="5" markerHeight="5" 
      orient="90deg">
        <rect x="0" y="0" width="10" height="10"
     stroke="navy" fill="black" stroke-width="2"  />
    </marker>

</defs>

  <metadata
     id="metadata7">
    <rdf:RDF>
      <cc:Work
         rdf:about="">
        <dc:format>image/svg+xml</dc:format>
        <dc:type
           rdf:resource="http://purl.org/dc/dcmitype/StillImage" />
      </cc:Work>
    </rdf:RDF>
  </metadata>


<!-- (c)2008 S.De Gabrielle  --><g  id="threads" stroke-width="2px" stroke="purple"  fill="none" stroke-dasharray="4px, 8px" ><path stroke="green" d="M 3870,8 H 3870 V 50 V 8   H 3890 V 50 V 8   H 3910 V 50 V 8   H 3930 V 500 V 8   H 3950 V 500 V 8   H 3970 V 140 V 8   H 3990 V 455 V 8   H 4010 V 140 V 8   H 4030 V 140 V 8   H 4050 V 140 V 8   H 4070 V 140 V 8   H 4090 V 455 V 8   H 4110 V 140 V 8   H 4130 V 500 V 8   H 4150 V 500 V 8   H 4170 V 500 V 8   H 4190 V 140 V 8   H 4210 V 140 V 8   H 4230 V 455 V 8   H 4250 V 455 V 8   H 4270 V 500 V 8   H 4290 V 140 V 8   H 4310 V 140 V 8 " /><path stroke="green" d="M 3870,623 H 3870 V 560 V 623   H 3890 V 560 V 623   H 3910 V 560 V 623   H 3930 V 575 V 623   H 3950 V 575 V 623   H 3970 V 575 V 623   H 3990 V 575 V 623   H 4010 V 575 V 623   H 4030 V 575 V 623   H 4050 V 575 V 623   H 4070 V 575 V 623   H 4090 V 575 V 623   H 4110 V 575 V 623   H 4130 V 575 V 623   H 4150 V 575 V 623   H 4170 V 575 V 623   H 4190 V 575 V 623   H 4210 V 575 V 623   H 4230 V 575 V 623   H 4250 V 575 V 623   H 4270 V 575 V 623   H 4290 V 575 V 623   H 4310 V 575 V 623 " /><path stroke="black" d="M 3790,20 H 3790 V 50 V 20   H 3810 V 50 V 20   H 3830 V 50 V 20   H 3850 V 50 V 20 " /><path stroke="black" d="M 3790,638 H 3790 V 605 V 638   H 3810 V 605 V 638   H 3830 V 605 V 638   H 3850 V 605 V 638 " /><path stroke="gold" d="M 3730,47 H 3730 V 80 V 47   H 3750 V 80 V 47   H 3770 V 80 V 47 " /><path stroke="gold" d="M 3730,623 H 3730 V 575 V 623   H 3750 V 575 V 623   H 3770 V 575 V 623 " /><path stroke="gold" d="M 3490,290 H 3490 V 335 V 290   H 3510 V 335 V 290   H 3530 V 335 V 290   H 3550 V 335 V 290   H 3570 V 335 V 290   H 3590 V 335 V 290   H 3610 V 335 V 290   H 3630 V 335 V 290   H 3650 V 335 V 290   H 3670 V 335 V 290   H 3690 V 335 V 290   H 3710 V 335 V 290 " /><path stroke="gold" d="M 3490,605 H 3490 V 575 V 605   H 3510 V 575 V 605   H 3530 V 575 V 605   H 3550 V 575 V 605   H 3570 V 575 V 605   H 3590 V 575 V 605   H 3610 V 575 V 605   H 3630 V 575 V 605   H 3650 V 575 V 605   H 3670 V 575 V 605   H 3690 V 575 V 605   H 3710 V 575 V 605 " /><path stroke="gold" d="M 3350,8 H 3350 V 50 V 8   H 3370 V 50 V 8   H 3390 V 50 V 8   H 3410 V 50 V 8   H 3430 V 470 V 8   H 3450 V 470 V 8   H 3470 V 470 V 8 " /><path stroke="gold" d="M 3350,608 H 3350 V 575 V 608   H 3370 V 575 V 608   H 3390 V 575 V 608   H 3410 V 575 V 608   H 3430 V 575 V 608   H 3450 V 575 V 608   H 3470 V 575 V 608 " /><path stroke="orange" d="M 2010,2 H 2010 V 50 V 2   H 2030 V 50 V 2   H 2050 V 50 V 2   H 2070 V 50 V 2   H 2090 V 50 V 2   H 2110 V 50 V 2   H 2130 V 50 V 2   H 2150 V 50 V 2   H 2210 V 50 V 2   H 2250 V 50 V 2   H 2330 V 50 V 2   H 2350 V 50 V 2   H 2370 V 50 V 2   H 2390 V 380 V 2   H 2410 V 50 V 2   H 2430 V 50 V 2   H 2450 V 380 V 2   H 2470 V 50 V 2   H 2490 V 50 V 2   H 2510 V 50 V 2   H 2530 V 380 V 2   H 2610 V 50 V 2   H 2630 V 50 V 2   H 2650 V 50 V 2   H 2670 V 50 V 2   H 2690 V 50 V 2   H 2710 V 50 V 2   H 2730 V 50 V 2   H 2750 V 50 V 2   H 2770 V 50 V 2   H 2790 V 50 V 2   H 2810 V 50 V 2   H 2830 V 50 V 2   H 2850 V 590 V 2   H 2870 V 590 V 2   H 2890 V 590 V 2   H 2910 V 470 V 2   H 2930 V 575 V 2   H 2950 V 380 V 2   H 2970 V 470 V 2   H 2990 V 575 V 2   H 3010 V 575 V 2   H 3030 V 380 V 2   H 3050 V 470 V 2   H 3070 V 380 V 2   H 3090 V 575 V 2   H 3110 V 50 V 2   H 3130 V 50 V 2   H 3150 V 50 V 2   H 3170 V 50 V 2   H 3190 V 50 V 2   H 3210 V 50 V 2   H 3230 V 590 V 2   H 3250 V 50 V 2   H 3270 V 590 V 2   H 3290 V 50 V 2   H 3310 V 50 V 2   H 3330 V 590 V 2   H 4330 V 50 V 2 " /><path stroke="orange" d="M 2010,644 H 2010 V 560 V 644   H 2030 V 560 V 644   H 2050 V 560 V 644   H 2070 V 560 V 644   H 2090 V 560 V 644   H 2110 V 560 V 644   H 2130 V 560 V 644   H 2150 V 560 V 644   H 2210 V 575 V 644   H 2250 V 575 V 644   H 2330 V 560 V 644   H 2350 V 560 V 644   H 2370 V 560 V 644   H 2390 V 575 V 644   H 2410 V 575 V 644   H 2430 V 560 V 644   H 2450 V 575 V 644   H 2470 V 575 V 644   H 2490 V 560 V 644   H 2510 V 560 V 644   H 2530 V 575 V 644   H 2610 V 575 V 644   H 2630 V 575 V 644   H 2650 V 575 V 644   H 2670 V 575 V 644   H 2690 V 575 V 644   H 2710 V 605 V 644   H 2730 V 605 V 644   H 2750 V 605 V 644   H 2770 V 605 V 644   H 2790 V 605 V 644   H 2810 V 605 V 644   H 2830 V 605 V 644   H 2850 V 605 V 644   H 2870 V 605 V 644   H 2890 V 605 V 644   H 2910 V 575 V 644   H 2930 V 605 V 644   H 2950 V 575 V 644   H 2970 V 575 V 644   H 2990 V 605 V 644   H 3010 V 605 V 644   H 3030 V 575 V 644   H 3050 V 575 V 644   H 3070 V 575 V 644   H 3090 V 605 V 644   H 3110 V 605 V 644   H 3130 V 605 V 644   H 3150 V 605 V 644   H 3170 V 605 V 644   H 3190 V 605 V 644   H 3210 V 605 V 644   H 3230 V 605 V 644   H 3250 V 605 V 644   H 3270 V 605 V 644   H 3290 V 605 V 644   H 3310 V 605 V 644   H 3330 V 605 V 644   H 4330 V 230 V 644 " /><path stroke="orange" d="M 2550,545 H 2550 V 590 V 545   H 2570 V 590 V 545   H 2590 V 590 V 545 " /><path stroke="orange" d="M 2550,653 H 2550 V 620 V 653   H 2570 V 620 V 653   H 2590 V 620 V 653 " /><path stroke="purple" d="M 2270,5 H 2270 V 35 V 5   H 2290 V 35 V 5   H 2310 V 35 V 5 " /><path stroke="purple" d="M 2270,617 H 2270 V 575 V 617   H 2290 V 575 V 617   H 2310 V 575 V 617 " /><path stroke="red" d="M 2170,239 H 2170 V 275 V 239   H 2190 V 275 V 239   H 2230 V 275 V 239 " /><path stroke="red" d="M 2170,614 H 2170 V 575 V 614   H 2190 V 575 V 614   H 2230 V 575 V 614 " /><path stroke="green" d="M 1910,203 H 1910 V 245 V 203   H 1930 V 245 V 203   H 1950 V 245 V 203   H 1970 V 245 V 203   H 1990 V 245 V 203 " /><path stroke="green" d="M 1910,605 H 1910 V 575 V 605   H 1930 V 575 V 605   H 1950 V 575 V 605   H 1970 V 575 V 605   H 1990 V 575 V 605 " /><path stroke="red" d="M 1850,77 H 1850 V 110 V 77   H 1870 V 110 V 77   H 1890 V 110 V 77 " /><path stroke="red" d="M 1850,623 H 1850 V 575 V 623   H 1870 V 575 V 623   H 1890 V 575 V 623 " /><path stroke="green" d="M 490,11 H 490 V 200 V 11   H 510 V 200 V 11   H 530 V 200 V 11   H 550 V 530 V 11   H 590 V 200 V 11   H 610 V 200 V 11   H 630 V 200 V 11   H 650 V 530 V 11   H 670 V 530 V 11   H 710 V 200 V 11   H 750 V 200 V 11   H 770 V 530 V 11   H 1190 V 470 V 11   H 1210 V 470 V 11   H 1230 V 470 V 11   H 1250 V 470 V 11   H 1270 V 470 V 11   H 1350 V 50 V 11   H 1410 V 410 V 11   H 1430 V 530 V 11   H 1450 V 410 V 11   H 1470 V 530 V 11   H 1490 V 410 V 11   H 1510 V 410 V 11   H 1530 V 410 V 11   H 1550 V 50 V 11   H 1570 V 50 V 11   H 1590 V 50 V 11   H 1610 V 50 V 11   H 1630 V 50 V 11   H 1650 V 50 V 11   H 1670 V 50 V 11   H 1690 V 50 V 11   H 1710 V 470 V 11   H 1730 V 470 V 11   H 1750 V 470 V 11   H 1770 V 575 V 11   H 1790 V 575 V 11   H 1810 V 575 V 11   H 1830 V 575 V 11 " /><path stroke="green" d="M 490,644 H 490 V 575 V 644   H 510 V 575 V 644   H 530 V 575 V 644   H 550 V 575 V 644   H 590 V 575 V 644   H 610 V 575 V 644   H 630 V 575 V 644   H 650 V 575 V 644   H 670 V 575 V 644   H 710 V 575 V 644   H 750 V 575 V 644   H 770 V 575 V 644   H 1190 V 575 V 644   H 1210 V 575 V 644   H 1230 V 575 V 644   H 1250 V 575 V 644   H 1270 V 575 V 644   H 1350 V 575 V 644   H 1410 V 575 V 644   H 1430 V 575 V 644   H 1450 V 575 V 644   H 1470 V 575 V 644   H 1490 V 575 V 644   H 1510 V 575 V 644   H 1530 V 575 V 644   H 1550 V 575 V 644   H 1570 V 575 V 644   H 1590 V 575 V 644   H 1610 V 575 V 644   H 1630 V 575 V 644   H 1650 V 575 V 644   H 1670 V 575 V 644   H 1690 V 575 V 644   H 1710 V 575 V 644   H 1730 V 575 V 644   H 1750 V 575 V 644   H 1770 V 605 V 644   H 1790 V 605 V 644   H 1810 V 605 V 644   H 1830 V 605 V 644 " /><path stroke="black" d="M 1290,5 H 1290 V 50 V 5   H 1310 V 50 V 5   H 1330 V 50 V 5   H 1370 V 50 V 5   H 1390 V 50 V 5 " /><path stroke="black" d="M 1290,614 H 1290 V 575 V 614   H 1310 V 560 V 614   H 1330 V 560 V 614   H 1370 V 575 V 614   H 1390 V 560 V 614 " /><path stroke="orange" d="M 1110,20 H 1110 V 50 V 20   H 1130 V 50 V 20   H 1150 V 50 V 20   H 1170 V 50 V 20 " /><path stroke="orange" d="M 1110,650 H 1110 V 605 V 650   H 1130 V 605 V 650   H 1150 V 605 V 650   H 1170 V 605 V 650 " /><path stroke="orange" d="M 1050,374 H 1050 V 410 V 374   H 1070 V 530 V 374   H 1090 V 530 V 374 " /><path stroke="orange" d="M 1050,614 H 1050 V 575 V 614   H 1070 V 575 V 614   H 1090 V 575 V 614 " /><path stroke="purple" d="M 890,5 H 890 V 575 V 5   H 910 V 50 V 5   H 930 V 575 V 5   H 950 V 575 V 5   H 970 V 50 V 5   H 990 V 50 V 5   H 1010 V 50 V 5   H 1030 V 575 V 5 " /><path stroke="purple" d="M 890,647 H 890 V 605 V 647   H 910 V 560 V 647   H 930 V 605 V 647   H 950 V 605 V 647   H 970 V 560 V 647   H 990 V 605 V 647   H 1010 V 560 V 647   H 1030 V 605 V 647 " /><path stroke="black" d="M 790,5 H 790 V 410 V 5   H 810 V 410 V 5   H 830 V 410 V 5   H 850 V 50 V 5   H 870 V 410 V 5 " /><path stroke="black" d="M 790,620 H 790 V 575 V 620   H 810 V 575 V 620   H 830 V 575 V 620   H 850 V 575 V 620   H 870 V 575 V 620 " /><path stroke="purple" d="M 570,371 H 570 V 410 V 371   H 690 V 410 V 371   H 730 V 410 V 371 " /><path stroke="purple" d="M 570,614 H 570 V 575 V 614   H 690 V 575 V 614   H 730 V 575 V 614 " /><path stroke="gold" d="M 270,53 H 270 V 410 V 53   H 290 V 410 V 53   H 310 V 320 V 53   H 330 V 95 V 53   H 350 V 95 V 53   H 370 V 410 V 53   H 390 V 95 V 53   H 410 V 575 V 53   H 430 V 575 V 53   H 450 V 575 V 53   H 470 V 575 V 53 " /><path stroke="gold" d="M 270,653 H 270 V 575 V 653   H 290 V 575 V 653   H 310 V 605 V 653   H 330 V 575 V 653   H 350 V 575 V 653   H 370 V 575 V 653   H 390 V 575 V 653   H 410 V 605 V 653   H 430 V 605 V 653   H 450 V 605 V 653   H 470 V 605 V 653 " />
</g>
<text id="t1" stroke="none" x="20" xml:space="preserve" y="35"><tspan dx="10" dy="-5" id="ts1" font-family="sans-serif" font-size="70%">anita.dupont@enron.com</tspan></text><line stroke="black" stroke-width="0.5" x1="20" y1="35" x2="2500" y2="35" /><text id="t1" stroke="none" x="20" xml:space="preserve" y="50"><tspan dx="10" dy="-5" id="ts1" font-family="sans-serif" font-size="70%">bambos@stanford.edu</tspan></text><line stroke="black" stroke-width="0.5" x1="20" y1="50" x2="2500" y2="50" /><text id="t1" stroke="none" x="20" xml:space="preserve" y="65"><tspan dx="10" dy="-5" id="ts1" font-family="sans-serif" font-size="70%">bambos@stanford.stanford.edu</tspan></text><line stroke="black" stroke-width="0.5" x1="20" y1="65" x2="2500" y2="65" /><text id="t1" stroke="none" x="20" xml:space="preserve" y="80"><tspan dx="10" dy="-5" id="ts1" font-family="sans-serif" font-size="70%">brad.romine@enron.com</tspan></text><line stroke="black" stroke-width="0.5" x1="20" y1="80" x2="2500" y2="80" /><text id="t1" stroke="none" x="20" xml:space="preserve" y="95"><tspan dx="10" dy="-5" id="ts1" font-family="sans-serif" font-size="70%">bradley@stanford.edu</tspan></text><line stroke="black" stroke-width="0.5" x1="20" y1="95" x2="2500" y2="95" /><text id="t1" stroke="none" x="20" xml:space="preserve" y="110"><tspan dx="10" dy="-5" id="ts1" font-family="sans-serif" font-size="70%">carol.brown@enron.com</tspan></text><line stroke="black" stroke-width="0.5" x1="20" y1="110" x2="2500" y2="110" /><text id="t1" stroke="none" x="20" xml:space="preserve" y="125"><tspan dx="10" dy="-5" id="ts1" font-family="sans-serif" font-size="70%">chonawee.supatgiat@enron.com</tspan></text><line stroke="black" stroke-width="0.5" x1="20" y1="125" x2="2500" y2="125" /><text id="t1" stroke="none" x="20" xml:space="preserve" y="140"><tspan dx="10" dy="-5" id="ts1" font-family="sans-serif" font-size="70%">christie.patrick@enron.com</tspan></text><line stroke="black" stroke-width="0.5" x1="20" y1="140" x2="2500" y2="140" /><text id="t1" stroke="none" x="20" xml:space="preserve" y="155"><tspan dx="10" dy="-5" id="ts1" font-family="sans-serif" font-size="70%">clovell@stanford.edu</tspan></text><line stroke="black" stroke-width="0.5" x1="20" y1="155" x2="2500" y2="155" /><text id="t1" stroke="none" x="20" xml:space="preserve" y="170"><tspan dx="10" dy="-5" id="ts1" font-family="sans-serif" font-size="70%">donna.lawrence@stanford.edu</tspan></text><line stroke="black" stroke-width="0.5" x1="20" y1="170" x2="2500" y2="170" /><text id="t1" stroke="none" x="20" xml:space="preserve" y="185"><tspan dx="10" dy="-5" id="ts1" font-family="sans-serif" font-size="70%">dorothy.dalton@enron.com</tspan></text><line stroke="black" stroke-width="0.5" x1="20" y1="185" x2="2500" y2="185" /><text id="t1" stroke="none" x="20" xml:space="preserve" y="200"><tspan dx="10" dy="-5" id="ts1" font-family="sans-serif" font-size="70%">gappy@stanford.edu</tspan></text><line stroke="black" stroke-width="0.5" x1="20" y1="200" x2="2500" y2="200" /><text id="t1" stroke="none" x="20" xml:space="preserve" y="215"><tspan dx="10" dy="-5" id="ts1" font-family="sans-serif" font-size="70%">hillh@stanford.edu</tspan></text><line stroke="black" stroke-width="0.5" x1="20" y1="215" x2="2500" y2="215" /><text id="t1" stroke="none" x="20" xml:space="preserve" y="230"><tspan dx="10" dy="-5" id="ts1" font-family="sans-serif" font-size="70%">j.kaminski@enron.com</tspan></text><line stroke="black" stroke-width="0.5" x1="20" y1="230" x2="2500" y2="230" /><text id="t1" stroke="none" x="20" xml:space="preserve" y="245"><tspan dx="10" dy="-5" id="ts1" font-family="sans-serif" font-size="70%">jeff.skilling@enron.com</tspan></text><line stroke="black" stroke-width="0.5" x1="20" y1="245" x2="2500" y2="245" /><text id="t1" stroke="none" x="20" xml:space="preserve" y="260"><tspan dx="10" dy="-5" id="ts1" font-family="sans-serif" font-size="70%">jeffrey.shankman@enron.com</tspan></text><line stroke="black" stroke-width="0.5" x1="20" y1="260" x2="2500" y2="260" /><text id="t1" stroke="none" x="20" xml:space="preserve" y="275"><tspan dx="10" dy="-5" id="ts1" font-family="sans-serif" font-size="70%">jo.olsovsky@enron.com</tspan></text><line stroke="black" stroke-width="0.5" x1="20" y1="275" x2="2500" y2="275" /><text id="t1" stroke="none" x="20" xml:space="preserve" y="290"><tspan dx="10" dy="-5" id="ts1" font-family="sans-serif" font-size="70%">kayla.crenshaw@enron.com</tspan></text><line stroke="black" stroke-width="0.5" x1="20" y1="290" x2="2500" y2="290" /><text id="t1" stroke="none" x="20" xml:space="preserve" y="305"><tspan dx="10" dy="-5" id="ts1" font-family="sans-serif" font-size="70%">lucy.marshall@enron.com</tspan></text><line stroke="black" stroke-width="0.5" x1="20" y1="305" x2="2500" y2="305" /><text id="t1" stroke="none" x="20" xml:space="preserve" y="320"><tspan dx="10" dy="-5" id="ts1" font-family="sans-serif" font-size="70%">ludkam@aol.com</tspan></text><line stroke="black" stroke-width="0.5" x1="20" y1="320" x2="2500" y2="320" /><text id="t1" stroke="none" x="20" xml:space="preserve" y="335"><tspan dx="10" dy="-5" id="ts1" font-family="sans-serif" font-size="70%">martin.lin@enron.com</tspan></text><line stroke="black" stroke-width="0.5" x1="20" y1="335" x2="2500" y2="335" /><text id="t1" stroke="none" x="20" xml:space="preserve" y="350"><tspan dx="10" dy="-5" id="ts1" font-family="sans-serif" font-size="70%">melinda.mccarty@enron.com</tspan></text><line stroke="black" stroke-width="0.5" x1="20" y1="350" x2="2500" y2="350" /><text id="t1" stroke="none" x="20" xml:space="preserve" y="365"><tspan dx="10" dy="-5" id="ts1" font-family="sans-serif" font-size="70%">melissa.jones@enron.com</tspan></text><line stroke="black" stroke-width="0.5" x1="20" y1="365" x2="2500" y2="365" /><text id="t1" stroke="none" x="20" xml:space="preserve" y="380"><tspan dx="10" dy="-5" id="ts1" font-family="sans-serif" font-size="70%">paul.racicot@enron.com</tspan></text><line stroke="black" stroke-width="0.5" x1="20" y1="380" x2="2500" y2="380" /><text id="t1" stroke="none" x="20" xml:space="preserve" y="395"><tspan dx="10" dy="-5" id="ts1" font-family="sans-serif" font-size="70%">pinnamaneni.krishnarao@enron.com</tspan></text><line stroke="black" stroke-width="0.5" x1="20" y1="395" x2="2500" y2="395" /><text id="t1" stroke="none" x="20" xml:space="preserve" y="410"><tspan dx="10" dy="-5" id="ts1" font-family="sans-serif" font-size="70%">ravi.thuraisingham@enron.com</tspan></text><line stroke="black" stroke-width="0.5" x1="20" y1="410" x2="2500" y2="410" /><text id="t1" stroke="none" x="20" xml:space="preserve" y="425"><tspan dx="10" dy="-5" id="ts1" font-family="sans-serif" font-size="70%">samer.takriti@enron.com</tspan></text><line stroke="black" stroke-width="0.5" x1="20" y1="425" x2="2500" y2="425" /><text id="t1" stroke="none" x="20" xml:space="preserve" y="440"><tspan dx="10" dy="-5" id="ts1" font-family="sans-serif" font-size="70%">shalesh.ganjoo@enron.com</tspan></text><line stroke="black" stroke-width="0.5" x1="20" y1="440" x2="2500" y2="440" /><text id="t1" stroke="none" x="20" xml:space="preserve" y="455"><tspan dx="10" dy="-5" id="ts1" font-family="sans-serif" font-size="70%">shirley.crenshaw@enron.com</tspan></text><line stroke="black" stroke-width="0.5" x1="20" y1="455" x2="2500" y2="455" /><text id="t1" stroke="none" x="20" xml:space="preserve" y="470"><tspan dx="10" dy="-5" id="ts1" font-family="sans-serif" font-size="70%">stinson.gibner@enron.com</tspan></text><line stroke="black" stroke-width="0.5" x1="20" y1="470" x2="2500" y2="470" /><text id="t1" stroke="none" x="20" xml:space="preserve" y="485"><tspan dx="10" dy="-5" id="ts1" font-family="sans-serif" font-size="70%">sue.wadsworth@enron.com</tspan></text><line stroke="black" stroke-width="0.5" x1="20" y1="485" x2="2500" y2="485" /><text id="t1" stroke="none" x="20" xml:space="preserve" y="500"><tspan dx="10" dy="-5" id="ts1" font-family="sans-serif" font-size="70%">susan.hansen@stanford.edu</tspan></text><line stroke="black" stroke-width="0.5" x1="20" y1="500" x2="2500" y2="500" /><text id="t1" stroke="none" x="20" xml:space="preserve" y="515"><tspan dx="10" dy="-5" id="ts1" font-family="sans-serif" font-size="70%">thomas.gros@enron.com</tspan></text><line stroke="black" stroke-width="0.5" x1="20" y1="515" x2="2500" y2="515" /><text id="t1" stroke="none" x="20" xml:space="preserve" y="530"><tspan dx="10" dy="-5" id="ts1" font-family="sans-serif" font-size="70%">tom.gros@enron.com</tspan></text><line stroke="black" stroke-width="0.5" x1="20" y1="530" x2="2500" y2="530" /><text id="t1" stroke="none" x="20" xml:space="preserve" y="545"><tspan dx="10" dy="-5" id="ts1" font-family="sans-serif" font-size="70%">tom.gros@enroncommunications.enron.net</tspan></text><line stroke="black" stroke-width="0.5" x1="20" y1="545" x2="2500" y2="545" /><text id="t1" stroke="none" x="20" xml:space="preserve" y="560"><tspan dx="10" dy="-5" id="ts1" font-family="sans-serif" font-size="70%">vince.j.kaminski@enron.com</tspan></text><line stroke="black" stroke-width="0.5" x1="20" y1="560" x2="2500" y2="560" /><text id="t1" stroke="none" x="20" xml:space="preserve" y="575"><tspan dx="10" dy="-5" id="ts1" font-family="sans-serif" font-size="70%">vince.kaminski@enron.com</tspan></text><line stroke="black" stroke-width="0.5" x1="20" y1="575" x2="2500" y2="575" /><text id="t1" stroke="none" x="20" xml:space="preserve" y="590"><tspan dx="10" dy="-5" id="ts1" font-family="sans-serif" font-size="70%">vkamins@enron.com</tspan></text><line stroke="black" stroke-width="0.5" x1="20" y1="590" x2="2500" y2="590" /><text id="t1" stroke="none" x="20" xml:space="preserve" y="605"><tspan dx="10" dy="-5" id="ts1" font-family="sans-serif" font-size="70%">vkaminski@aol.com</tspan></text><line stroke="black" stroke-width="0.5" x1="20" y1="605" x2="2500" y2="605" /><text id="t1" stroke="none" x="20" xml:space="preserve" y="620"><tspan dx="10" dy="-5" id="ts1" font-family="sans-serif" font-size="70%">vkaminski@palm.net</tspan></text><line stroke="black" stroke-width="0.5" x1="20" y1="620" x2="2500" y2="620" /><!-- vertical email lines with links --><g id="messages" stroke="black"><a xlink:href="bambos/4606.eml"><path d="M 270,575 V 410" stroke="black" /></a><a xlink:href="bambos/4605.eml"><path d="M 290,575 V 410" stroke="black" /></a><a xlink:href="bambos/4595.eml"><path d="M 310,575 V 320 V 455 V 605" stroke="black" /></a><a xlink:href="bambos/4594.eml"><path d="M 330,95 V 575" stroke="black" /></a><a xlink:href="bambos/10728.eml"><path d="M 350,95 V 575" stroke="black" /></a><a xlink:href="bambos/10726.eml"><path d="M 370,575 V 410" stroke="black" /></a><a xlink:href="bambos/107.eml"><path d="M 390,95 V 575" stroke="black" /></a><a xlink:href="bambos/4639.eml"><path d="M 410,575 V 605" stroke="black" /></a><a xlink:href="bambos/4584.eml"><path d="M 430,575 V 605" stroke="black" /></a><a xlink:href="bambos/4583.eml"><path d="M 450,575 V 605" stroke="black" /></a><a xlink:href="bambos/10680.eml"><path d="M 470,575 V 605" stroke="black" /></a><a xlink:href="bambos/4795.eml"><path d="M 490,200 V 575" stroke="black" /></a><a xlink:href="bambos/106.eml"><path d="M 510,200 V 575" stroke="black" /></a><a xlink:href="bambos/10493.eml"><path d="M 530,200 V 575" stroke="black" /></a><a xlink:href="bambos/4857.eml"><path d="M 550,575 V 530" stroke="black" /></a><a xlink:href="bambos/4847.eml"><path d="M 570,410 V 470 V 575" stroke="black" /></a><a xlink:href="bambos/4796.eml"><path d="M 590,575 V 200 V 410 V 575" stroke="black" /></a><a xlink:href="bambos/4477.eml"><path d="M 610,575 V 200 V 410 V 575" stroke="black" /></a><a xlink:href="bambos/4476.eml"><path d="M 630,575 V 200 V 410 V 575" stroke="black" /></a><a xlink:href="bambos/4474.eml"><path d="M 650,575 V 530" stroke="black" /></a><a xlink:href="bambos/4473.eml"><path d="M 670,575 V 530" stroke="black" /></a><a xlink:href="bambos/123.eml"><path d="M 690,410 V 470 V 575" stroke="black" /></a><a xlink:href="bambos/105.eml"><path d="M 710,575 V 200 V 410 V 575" stroke="black" /></a><a xlink:href="bambos/10421.eml"><path d="M 730,410 V 470 V 575" stroke="black" /></a><a xlink:href="bambos/10416.eml"><path d="M 750,575 V 200 V 410 V 575" stroke="black" /></a><a xlink:href="bambos/10408.eml"><path d="M 770,575 V 530" stroke="black" /></a><a xlink:href="bambos/4890.eml"><path d="M 790,575 V 410 V 470 V 515" stroke="black" /></a><a xlink:href="bambos/4458.eml"><path d="M 810,575 V 410 V 470 V 515" stroke="black" /></a><a xlink:href="bambos/4457.eml"><path d="M 830,575 V 410 V 470 V 515" stroke="black" /></a><a xlink:href="bambos/10361.eml"><path d="M 850,575 V 50 V 575" stroke="black" /></a><a xlink:href="bambos/10360.eml"><path d="M 870,575 V 410 V 470 V 515" stroke="black" /></a><a xlink:href="bambos/4910.eml"><path d="M 890,575 V 605" stroke="black" /></a><a xlink:href="bambos/4908.eml"><path d="M 910,50 V 560" stroke="black" /></a><a xlink:href="bambos/4446.eml"><path d="M 930,575 V 605" stroke="black" /></a><a xlink:href="bambos/4445.eml"><path d="M 950,575 V 605" stroke="black" /></a><a xlink:href="bambos/104.eml"><path d="M 970,50 V 560" stroke="black" /></a><a xlink:href="bambos/10333.eml"><path d="M 990,575 V 50 V 575 V 605" stroke="black" /></a><a xlink:href="bambos/10326.eml"><path d="M 1010,50 V 560" stroke="black" /></a><a xlink:href="bambos/10323.eml"><path d="M 1030,575 V 605" stroke="black" /></a><a xlink:href="bambos/10279.eml"><path d="M 1050,575 V 410 V 470 V 515 V 575" stroke="black" /></a><a xlink:href="bambos/107b.eml"><path d="M 1070,530 V 575" stroke="black" /></a><a xlink:href="bambos/10257.eml"><path d="M 1090,530 V 575" stroke="black" /></a><a xlink:href="bambos/4412.eml"><path d="M 1110,575 V 50 V 320 V 575 V 605" stroke="black" /></a><a xlink:href="bambos/4411.eml"><path d="M 1130,575 V 50 V 320 V 575 V 605" stroke="black" /></a><a xlink:href="bambos/10239.eml"><path d="M 1150,575 V 50 V 320 V 575 V 605" stroke="black" /></a><a xlink:href="bambos/102.eml"><path d="M 1170,575 V 50 V 320 V 575 V 605" stroke="black" /></a><a xlink:href="bambos/5065.eml"><path d="M 1190,575 V 470 V 515 V 575" stroke="black" /></a><a xlink:href="bambos/4357.eml"><path d="M 1210,575 V 470 V 515 V 575" stroke="black" /></a><a xlink:href="bambos/4356.eml"><path d="M 1230,575 V 470 V 515 V 575" stroke="black" /></a><a xlink:href="bambos/101.eml"><path d="M 1250,575 V 470 V 515 V 575" stroke="black" /></a><a xlink:href="bambos/10097.eml"><path d="M 1270,575 V 470 V 515 V 575" stroke="black" /></a><a xlink:href="bambos/99.eml"><path d="M 1290,455 V 50 V 470 V 530 V 575" stroke="black" /></a><a xlink:href="bambos/98.eml"><path d="M 1310,50 V 65 V 455 V 470 V 545 V 560" stroke="black" /></a><a xlink:href="bambos/5096.eml"><path d="M 1330,50 V 65 V 455 V 470 V 545 V 560" stroke="black" /></a><a xlink:href="bambos/10063.eml"><path d="M 1350,575 V 50 V 455 V 470 V 575" stroke="black" /></a><a xlink:href="bambos/10055.eml"><path d="M 1370,455 V 50 V 470 V 530 V 575" stroke="black" /></a><a xlink:href="bambos/10043.eml"><path d="M 1390,50 V 65 V 455 V 470 V 545 V 560" stroke="black" /></a><a xlink:href="bambos/9410.eml"><path d="M 1410,575 V 410 V 470 V 515 V 575" stroke="black" /></a><a xlink:href="bambos/9406.eml"><path d="M 1430,530 V 575" stroke="black" /></a><a xlink:href="bambos/63b.eml"><path d="M 1450,575 V 410 V 470 V 515 V 575" stroke="black" /></a><a xlink:href="bambos/61b.eml"><path d="M 1470,530 V 575" stroke="black" /></a><a xlink:href="bambos/5526.eml"><path d="M 1490,575 V 410 V 470 V 515 V 575" stroke="black" /></a><a xlink:href="bambos/4053.eml"><path d="M 1510,575 V 410 V 470 V 515 V 575" stroke="black" /></a><a xlink:href="bambos/4052.eml"><path d="M 1530,575 V 410 V 470 V 515 V 575" stroke="black" /></a><a xlink:href="bambos/9342.eml"><path d="M 1550,575 V 50 V 470 V 575" stroke="black" /></a><a xlink:href="bambos/4027.eml"><path d="M 1570,575 V 50 V 470 V 575" stroke="black" /></a><a xlink:href="bambos/4026.eml"><path d="M 1590,575 V 50 V 470 V 575" stroke="black" /></a><a xlink:href="bambos/9312.eml"><path d="M 1610,575 V 50 V 470 V 575" stroke="black" /></a><a xlink:href="bambos/97.eml"><path d="M 1630,575 V 50 V 470 V 575" stroke="black" /></a><a xlink:href="bambos/9305.eml"><path d="M 1650,575 V 50 V 470 V 575" stroke="black" /></a><a xlink:href="bambos/4009.eml"><path d="M 1670,575 V 50 V 470 V 575" stroke="black" /></a><a xlink:href="bambos/4008.eml"><path d="M 1690,575 V 50 V 470 V 575" stroke="black" /></a><a xlink:href="bambos/95.eml"><path d="M 1710,470 V 575" stroke="black" /></a><a xlink:href="bambos/9230.eml"><path d="M 1730,470 V 575" stroke="black" /></a><a xlink:href="bambos/5638.eml"><path d="M 1750,470 V 575" stroke="black" /></a><a xlink:href="bambos/9167.eml"><path d="M 1770,575 V 605" stroke="black" /></a><a xlink:href="bambos/5673.eml"><path d="M 1790,575 V 605" stroke="black" /></a><a xlink:href="bambos/3961.eml"><path d="M 1810,575 V 605" stroke="black" /></a><a xlink:href="bambos/3960.eml"><path d="M 1830,575 V 605" stroke="black" /></a><a xlink:href="bambos/93.eml"><path d="M 1850,455 V 110 V 125 V 185 V 290 V 305 V 365 V 395 V 425 V 470 V 485 V 575" stroke="black" /></a><a xlink:href="bambos/9153.eml"><path d="M 1870,455 V 110 V 125 V 185 V 290 V 305 V 365 V 395 V 425 V 470 V 485 V 575" stroke="black" /></a><a xlink:href="bambos/5686.eml"><path d="M 1890,455 V 110 V 125 V 185 V 290 V 305 V 365 V 395 V 425 V 470 V 485 V 575" stroke="black" /></a><a xlink:href="bambos/5727.eml"><path d="M 1910,575 V 245 V 260 V 575" stroke="black" /></a><a xlink:href="bambos/5.eml"><path d="M 1930,575 V 245 V 260 V 575" stroke="black" /></a><a xlink:href="bambos/3904.eml"><path d="M 1950,575 V 245 V 260 V 575" stroke="black" /></a><a xlink:href="bambos/3903.eml"><path d="M 1970,575 V 245 V 260 V 575" stroke="black" /></a><a xlink:href="bambos/240.eml"><path d="M 1990,575 V 245 V 260 V 575" stroke="black" /></a><a xlink:href="bambos/69.eml"><path d="M 2010,50 V 470 V 560" stroke="black" /></a><a xlink:href="bambos/5330.eml"><path d="M 2030,50 V 470 V 560" stroke="black" /></a><a xlink:href="bambos/262.eml"><path d="M 2050,50 V 470 V 560" stroke="black" /></a><a xlink:href="bambos/67.eml"><path d="M 2070,470 V 50 V 560" stroke="black" /></a><a xlink:href="bambos/5051.eml"><path d="M 2090,470 V 50 V 560" stroke="black" /></a><a xlink:href="bambos/66.eml"><path d="M 2110,50 V 470 V 560" stroke="black" /></a><a xlink:href="bambos/541.eml"><path d="M 2130,50 V 470 V 560" stroke="black" /></a><a xlink:href="bambos/4927.eml"><path d="M 2150,50 V 470 V 560" stroke="black" /></a><a xlink:href="bambos/643.eml"><path d="M 2170,455 V 275 V 305 V 470 V 575" stroke="black" /></a><a xlink:href="bambos/4792.eml"><path d="M 2190,455 V 275 V 305 V 470 V 575" stroke="black" /></a><a xlink:href="bambos/4791.eml"><path d="M 2210,470 V 50 V 455 V 575" stroke="black" /></a><a xlink:href="bambos/19.eml"><path d="M 2230,455 V 275 V 305 V 470 V 575" stroke="black" /></a><a xlink:href="bambos/18.eml"><path d="M 2250,470 V 50 V 455 V 575" stroke="black" /></a><a xlink:href="bambos/759.eml"><path d="M 2270,35 V 575" stroke="black" /></a><a xlink:href="bambos/4640.eml"><path d="M 2290,35 V 575" stroke="black" /></a><a xlink:href="bambos/16.eml"><path d="M 2310,35 V 575" stroke="black" /></a><a xlink:href="bambos/891.eml"><path d="M 2330,50 V 470 V 560" stroke="black" /></a><a xlink:href="bambos/64.eml"><path d="M 2350,50 V 470 V 560" stroke="black" /></a><a xlink:href="bambos/4463.eml"><path d="M 2370,50 V 470 V 560" stroke="black" /></a><a xlink:href="bambos/63.eml"><path d="M 2390,470 V 380 V 575" stroke="black" /></a><a xlink:href="bambos/62.eml"><path d="M 2410,470 V 50 V 575" stroke="black" /></a><a xlink:href="bambos/61.eml"><path d="M 2430,50 V 470 V 560" stroke="black" /></a><a xlink:href="bambos/4201.eml"><path d="M 2450,470 V 380 V 575" stroke="black" /></a><a xlink:href="bambos/4200.eml"><path d="M 2470,470 V 50 V 575" stroke="black" /></a><a xlink:href="bambos/4199.eml"><path d="M 2490,50 V 470 V 560" stroke="black" /></a><a xlink:href="bambos/1090.eml"><path d="M 2510,50 V 470 V 560" stroke="black" /></a><a xlink:href="bambos/1089.eml"><path d="M 2530,470 V 380 V 575" stroke="black" /></a><a xlink:href="bambos/4191.eml"><path d="M 2550,620 V 590" stroke="black" /></a><a xlink:href="bambos/283.eml"><path d="M 2570,620 V 590" stroke="black" /></a><a xlink:href="bambos/1100.eml"><path d="M 2590,620 V 590" stroke="black" /></a><a xlink:href="bambos/60.eml"><path d="M 2610,575 V 50 V 575" stroke="black" /></a><a xlink:href="bambos/4144.eml"><path d="M 2630,575 V 50 V 575" stroke="black" /></a><a xlink:href="bambos/1909.eml"><path d="M 2650,575 V 50 V 575" stroke="black" /></a><a xlink:href="bambos/1908.eml"><path d="M 2670,575 V 50 V 575" stroke="black" /></a><a xlink:href="bambos/1091.eml"><path d="M 2690,575 V 50 V 575" stroke="black" /></a><a xlink:href="bambos/59.eml"><path d="M 2710,575 V 50 V 575 V 605" stroke="black" /></a><a xlink:href="bambos/4122.eml"><path d="M 2730,575 V 50 V 575 V 605" stroke="black" /></a><a xlink:href="bambos/1899.eml"><path d="M 2750,575 V 50 V 575 V 605" stroke="black" /></a><a xlink:href="bambos/1898.eml"><path d="M 2770,575 V 50 V 575 V 605" stroke="black" /></a><a xlink:href="bambos/58.eml"><path d="M 2790,50 V 200 V 560 V 605" stroke="black" /></a><a xlink:href="bambos/4040.eml"><path d="M 2810,50 V 200 V 560 V 605" stroke="black" /></a><a xlink:href="bambos/1206.eml"><path d="M 2830,50 V 200 V 560 V 605" stroke="black" /></a><a xlink:href="bambos/57.eml"><path d="M 2850,605 V 590 V 605" stroke="black" /></a><a xlink:href="bambos/4031.eml"><path d="M 2870,605 V 590 V 605" stroke="black" /></a><a xlink:href="bambos/1214.eml"><path d="M 2890,605 V 590 V 605" stroke="black" /></a><a xlink:href="bambos/56.eml"><path d="M 2910,470 V 575" stroke="black" /></a><a xlink:href="bambos/3969.eml"><path d="M 2930,575 V 605" stroke="black" /></a><a xlink:href="bambos/3948.eml"><path d="M 2950,470 V 380 V 575" stroke="black" /></a><a xlink:href="bambos/3947.eml"><path d="M 2970,470 V 575" stroke="black" /></a><a xlink:href="bambos/1834.eml"><path d="M 2990,575 V 605" stroke="black" /></a><a xlink:href="bambos/1833.eml"><path d="M 3010,575 V 605" stroke="black" /></a><a xlink:href="bambos/15.eml"><path d="M 3030,470 V 380 V 575" stroke="black" /></a><a xlink:href="bambos/1277.eml"><path d="M 3050,470 V 575" stroke="black" /></a><a xlink:href="bambos/1276.eml"><path d="M 3070,470 V 380 V 575" stroke="black" /></a><a xlink:href="bambos/1260.eml"><path d="M 3090,575 V 605" stroke="black" /></a><a xlink:href="bambos/55.eml"><path d="M 3110,50 V 200 V 560 V 605" stroke="black" /></a><a xlink:href="bambos/54.eml"><path d="M 3130,605 V 50 V 590" stroke="black" /></a><a xlink:href="bambos/3937.eml"><path d="M 3150,50 V 200 V 560 V 605" stroke="black" /></a><a xlink:href="bambos/3935.eml"><path d="M 3170,605 V 50 V 590" stroke="black" /></a><a xlink:href="bambos/1294.eml"><path d="M 3190,605 V 50 V 590" stroke="black" /></a><a xlink:href="bambos/1292.eml"><path d="M 3210,50 V 200 V 560 V 605" stroke="black" /></a><a xlink:href="bambos/53.eml"><path d="M 3230,605 V 590" stroke="black" /></a><a xlink:href="bambos/52.eml"><path d="M 3250,605 V 50 V 590" stroke="black" /></a><a xlink:href="bambos/3814.eml"><path d="M 3270,605 V 590" stroke="black" /></a><a xlink:href="bambos/3813.eml"><path d="M 3290,605 V 50 V 590" stroke="black" /></a><a xlink:href="bambos/1385.eml"><path d="M 3310,605 V 50 V 590" stroke="black" /></a><a xlink:href="bambos/1384.eml"><path d="M 3330,605 V 590" stroke="black" /></a><a xlink:href="bambos/46.eml"><path d="M 3350,575 V 50 V 470 V 575" stroke="black" /></a><a xlink:href="bambos/2447.eml"><path d="M 3370,575 V 50 V 470 V 575" stroke="black" /></a><a xlink:href="bambos/1144.eml"><path d="M 3390,575 V 50 V 470 V 575" stroke="black" /></a><a xlink:href="bambos/1143.eml"><path d="M 3410,575 V 50 V 470 V 575" stroke="black" /></a><a xlink:href="bambos/45.eml"><path d="M 3430,470 V 575" stroke="black" /></a><a xlink:href="bambos/2440.eml"><path d="M 3450,470 V 575" stroke="black" /></a><a xlink:href="bambos/2361.eml"><path d="M 3470,470 V 575" stroke="black" /></a><a xlink:href="bambos/9.eml"><path d="M 3490,470 V 335 V 575" stroke="black" /></a><a xlink:href="bambos/2859.eml"><path d="M 3510,470 V 335 V 575" stroke="black" /></a><a xlink:href="bambos/1776.eml"><path d="M 3530,470 V 335 V 575" stroke="black" /></a><a xlink:href="bambos/44.eml"><path d="M 3550,470 V 335 V 575" stroke="black" /></a><a xlink:href="bambos/3030.eml"><path d="M 3570,470 V 335 V 575" stroke="black" /></a><a xlink:href="bambos/1552.eml"><path d="M 3590,470 V 335 V 575" stroke="black" /></a><a xlink:href="bambos/7b.eml"><path d="M 3610,470 V 335 V 575" stroke="black" /></a><a xlink:href="bambos/3055.eml"><path d="M 3630,470 V 335 V 575" stroke="black" /></a><a xlink:href="bambos/1514.eml"><path d="M 3650,470 V 335 V 575" stroke="black" /></a><a xlink:href="bambos/4.eml"><path d="M 3670,470 V 335 V 575" stroke="black" /></a><a xlink:href="bambos/3195.eml"><path d="M 3690,470 V 335 V 575" stroke="black" /></a><a xlink:href="bambos/1335.eml"><path d="M 3710,470 V 335 V 575" stroke="black" /></a><a xlink:href="bambos/3290.eml"><path d="M 3730,470 V 80 V 335 V 440 V 455 V 575" stroke="black" /></a><a xlink:href="bambos/3.eml"><path d="M 3750,470 V 80 V 335 V 440 V 455 V 575" stroke="black" /></a><a xlink:href="bambos/1213.eml"><path d="M 3770,470 V 80 V 335 V 440 V 455 V 575" stroke="black" /></a><a xlink:href="bambos/497b.eml"><path d="M 3790,575 V 50 V 575 V 605" stroke="black" /></a><a xlink:href="bambos/497.eml"><path d="M 3810,575 V 50 V 575 V 605" stroke="black" /></a><a xlink:href="bambos/3371.eml"><path d="M 3830,575 V 50 V 575 V 605" stroke="black" /></a><a xlink:href="bambos/1121.eml"><path d="M 3850,575 V 50 V 575 V 605" stroke="black" /></a><a xlink:href="bambos/724.eml"><path d="M 3870,500 V 50 V 155 V 170 V 215 V 560" stroke="black" /></a><a xlink:href="bambos/3697.eml"><path d="M 3890,500 V 50 V 155 V 170 V 215 V 560" stroke="black" /></a><a xlink:href="bambos/28.eml"><path d="M 3910,500 V 50 V 155 V 170 V 215 V 560" stroke="black" /></a><a xlink:href="bambos/8.eml"><path d="M 3930,575 V 500 V 575" stroke="black" /></a><a xlink:href="bambos/710.eml"><path d="M 3950,575 V 500 V 575" stroke="black" /></a><a xlink:href="bambos/707.eml"><path d="M 3970,575 V 140 V 575" stroke="black" /></a><a xlink:href="bambos/706.eml"><path d="M 3990,575 V 455" stroke="black" /></a><a xlink:href="bambos/7.eml"><path d="M 4010,575 V 140 V 575" stroke="black" /></a><a xlink:href="bambos/691.eml"><path d="M 4030,140 V 350 V 455 V 575" stroke="black" /></a><a xlink:href="bambos/6.eml"><path d="M 4050,140 V 350 V 455 V 575" stroke="black" /></a><a xlink:href="bambos/3728.eml"><path d="M 4070,140 V 350 V 455 V 575" stroke="black" /></a><a xlink:href="bambos/3715.eml"><path d="M 4090,575 V 455" stroke="black" /></a><a xlink:href="bambos/3713.eml"><path d="M 4110,575 V 140 V 575" stroke="black" /></a><a xlink:href="bambos/3698.eml"><path d="M 4130,575 V 500 V 575" stroke="black" /></a><a xlink:href="bambos/305b.eml"><path d="M 4150,575 V 500 V 575" stroke="black" /></a><a xlink:href="bambos/305.eml"><path d="M 4170,575 V 500 V 575" stroke="black" /></a><a xlink:href="bambos/304b.eml"><path d="M 4190,575 V 140 V 575" stroke="black" /></a><a xlink:href="bambos/304.eml"><path d="M 4210,575 V 140 V 575" stroke="black" /></a><a xlink:href="bambos/303b.eml"><path d="M 4230,575 V 455" stroke="black" /></a><a xlink:href="bambos/303.eml"><path d="M 4250,575 V 455" stroke="black" /></a><a xlink:href="bambos/26.eml"><path d="M 4270,575 V 500 V 575" stroke="black" /></a><a xlink:href="bambos/25.eml"><path d="M 4290,575 V 140 V 575" stroke="black" /></a><a xlink:href="bambos/24.eml"><path d="M 4310,140 V 350 V 455 V 575" stroke="black" /></a><a xlink:href="bambos/397.eml"><path d="M 4330,50 V 50 V 230" stroke="black" /></a></g>
</svg>

 